<svg width="336" height="192" viewBox="0 0 336 192" fill="none" xmlns="http://www.w3.org/2000/svg">
<g clip-path="url(#clip0_3_48)">
<rect width="336" height="192" fill="#F7ECDF"/>
<rect width="336" height="5" fill="#B3CC1F"/>
<rect y="187" width="336" height="5" fill="#B3CC1F"/>
<rect width="336" height="5" fill="#B3CC1F"/>
<rect x="-12.7409" y="189.731" width="190.708" height="17.2512" transform="rotate(-90.0778 -12.7409 189.731)" fill="#B3CC1F"/>
<rect x="331.263" y="189.858" width="193.845" height="9.63206" transform="rotate(-90.0778 331.263 189.858)" fill="#B3CC1F"/>
<path d="M273.044 94L276.5 87.304C276.572 87.16 276.608 87.032 276.608 86.92C276.608 86.832 276.576 86.76 276.512 86.704C276.456 86.648 276.356 86.62 276.212 86.62H272.288V85.6H276.368C276.656 85.6 276.904 85.66 277.112 85.78C277.32 85.892 277.48 86.044 277.592 86.236C277.712 86.42 277.772 86.628 277.772 86.86C277.772 86.996 277.752 87.136 277.712 87.28C277.68 87.416 277.636 87.544 277.58 87.664L274.34 94H273.044Z" fill="#553F2E"/>
<path d="M268.267 94.156C267.667 94.156 267.131 94.04 266.659 93.808C266.195 93.568 265.827 93.24 265.555 92.824C265.291 92.4 265.159 91.908 265.159 91.348C265.159 90.828 265.259 90.328 265.459 89.848C265.667 89.368 265.951 88.864 266.311 88.336L268.135 85.6H269.467L267.211 89.008C267.395 88.864 267.595 88.76 267.811 88.696C268.035 88.624 268.263 88.588 268.495 88.588C269.087 88.588 269.599 88.716 270.031 88.972C270.463 89.22 270.791 89.552 271.015 89.968C271.247 90.384 271.363 90.844 271.363 91.348C271.363 91.908 271.227 92.4 270.955 92.824C270.691 93.24 270.327 93.568 269.863 93.808C269.399 94.04 268.867 94.156 268.267 94.156ZM268.267 93.136C268.643 93.136 268.979 93.064 269.275 92.92C269.571 92.776 269.799 92.568 269.959 92.296C270.127 92.024 270.211 91.704 270.211 91.336C270.211 91.032 270.139 90.744 269.995 90.472C269.859 90.2 269.647 89.984 269.359 89.824C269.071 89.656 268.715 89.572 268.291 89.572C267.915 89.572 267.575 89.648 267.271 89.8C266.975 89.944 266.739 90.152 266.563 90.424C266.387 90.688 266.299 90.996 266.299 91.348C266.299 91.716 266.383 92.036 266.551 92.308C266.727 92.572 266.963 92.776 267.259 92.92C267.555 93.064 267.891 93.136 268.267 93.136Z" fill="#553F2E"/>
<path d="M258.527 94V92.98H261.119C261.455 92.98 261.747 92.904 261.995 92.752C262.251 92.592 262.447 92.384 262.583 92.128C262.719 91.872 262.787 91.6 262.787 91.312C262.787 91.032 262.719 90.772 262.583 90.532C262.455 90.284 262.267 90.088 262.019 89.944C261.779 89.792 261.495 89.716 261.167 89.716H258.743V85.6H263.387V86.62H259.847V88.72H261.311C261.831 88.72 262.287 88.84 262.679 89.08C263.071 89.32 263.375 89.64 263.591 90.04C263.815 90.432 263.927 90.86 263.927 91.324C263.927 91.796 263.815 92.236 263.591 92.644C263.367 93.052 263.055 93.38 262.655 93.628C262.255 93.876 261.791 94 261.263 94H258.527Z" fill="#553F2E"/>
<path d="M255.004 94V92.092H252.184C251.904 92.092 251.652 92.028 251.428 91.9C251.212 91.764 251.04 91.588 250.912 91.372C250.784 91.156 250.72 90.92 250.72 90.664C250.72 90.52 250.74 90.38 250.78 90.244C250.82 90.1 250.868 89.968 250.924 89.848L253.276 85.6H254.572L251.98 90.232C251.94 90.304 251.912 90.368 251.896 90.424C251.88 90.48 251.872 90.54 251.872 90.604C251.872 90.732 251.908 90.844 251.98 90.94C252.06 91.028 252.176 91.072 252.328 91.072H255.004V88.036H256.144V91.072H257.296V92.092H256.144V94H255.004Z" fill="#553F2E"/>
<path d="M246.277 91.372V90.364H249.673V91.372H246.277Z" fill="#553F2E"/>
<path d="M239.789 94V92.98H242.597C242.877 92.98 243.117 92.916 243.317 92.788C243.525 92.66 243.685 92.492 243.797 92.284C243.909 92.076 243.965 91.852 243.965 91.612C243.965 91.364 243.909 91.136 243.797 90.928C243.685 90.712 243.521 90.54 243.305 90.412C243.089 90.276 242.833 90.208 242.537 90.208H240.221V89.188H242.621C242.901 89.188 243.141 89.128 243.341 89.008C243.541 88.888 243.693 88.732 243.797 88.54C243.909 88.34 243.965 88.128 243.965 87.904C243.965 87.68 243.909 87.472 243.797 87.28C243.693 87.08 243.541 86.92 243.341 86.8C243.141 86.68 242.901 86.62 242.621 86.62H239.789V85.6H242.777C243.233 85.6 243.637 85.708 243.989 85.924C244.341 86.132 244.617 86.412 244.817 86.764C245.017 87.108 245.117 87.484 245.117 87.892C245.117 88.3 245.017 88.664 244.817 88.984C244.617 89.296 244.341 89.548 243.989 89.74C244.237 89.852 244.445 90.008 244.613 90.208C244.781 90.408 244.905 90.628 244.985 90.868C245.073 91.108 245.117 91.356 245.117 91.612C245.117 92.036 245.017 92.432 244.817 92.8C244.617 93.16 244.341 93.452 243.989 93.676C243.637 93.892 243.229 94 242.765 94H239.789Z" fill="#553F2E"/>
<path d="M234.44 94C234.144 94 233.888 93.94 233.672 93.82C233.456 93.692 233.292 93.528 233.18 93.328C233.068 93.128 233.012 92.904 233.012 92.656C233.012 92.416 233.072 92.184 233.192 91.96C233.312 91.728 233.48 91.536 233.696 91.384L236.432 89.428C236.696 89.236 236.896 89.016 237.032 88.768C237.168 88.52 237.236 88.268 237.236 88.012C237.236 87.74 237.172 87.504 237.044 87.304C236.916 87.096 236.728 86.932 236.48 86.812C236.24 86.684 235.944 86.62 235.592 86.62H233.42V85.6H235.712C236.28 85.6 236.76 85.712 237.152 85.936C237.552 86.152 237.856 86.444 238.064 86.812C238.28 87.172 238.388 87.572 238.388 88.012C238.388 88.452 238.284 88.864 238.076 89.248C237.876 89.624 237.56 89.96 237.128 90.256L234.404 92.152C234.324 92.2 234.26 92.264 234.212 92.344C234.172 92.416 234.152 92.492 234.152 92.572C234.152 92.692 234.192 92.792 234.272 92.872C234.36 92.944 234.48 92.98 234.632 92.98H238.592V94H234.44Z" fill="#553F2E"/>
<path d="M227.789 94V92.98H229.493V86.62H227.873V85.6H230.657V92.98H232.169V94H227.789Z" fill="#553F2E"/>
<path d="M223.742 91.372V90.364H227.138V91.372H223.742Z" fill="#553F2E"/>
<path d="M218.894 94V92.98H220.598V86.62H218.978V85.6H221.762V92.98H223.274V94H218.894Z" fill="#553F2E"/>
<path d="M214.599 94.156C214.015 94.156 213.491 94.028 213.027 93.772C212.571 93.516 212.207 93.168 211.935 92.728C211.671 92.288 211.539 91.796 211.539 91.252V88.348C211.539 87.804 211.671 87.312 211.935 86.872C212.207 86.432 212.571 86.088 213.027 85.84C213.491 85.584 214.015 85.456 214.599 85.456C215.175 85.456 215.691 85.584 216.147 85.84C216.603 86.096 216.963 86.444 217.227 86.884C217.499 87.316 217.635 87.804 217.635 88.348V91.252C217.635 91.796 217.499 92.288 217.227 92.728C216.963 93.168 216.603 93.516 216.147 93.772C215.691 94.028 215.175 94.156 214.599 94.156ZM214.599 93.136C214.943 93.136 215.255 93.056 215.535 92.896C215.823 92.736 216.051 92.524 216.219 92.26C216.395 91.988 216.483 91.688 216.483 91.36V88.24C216.483 87.912 216.395 87.616 216.219 87.352C216.051 87.08 215.823 86.864 215.535 86.704C215.255 86.544 214.943 86.464 214.599 86.464C214.255 86.464 213.935 86.544 213.639 86.704C213.351 86.864 213.119 87.08 212.943 87.352C212.775 87.616 212.691 87.912 212.691 88.24V91.36C212.691 91.688 212.775 91.988 212.943 92.26C213.119 92.524 213.351 92.736 213.639 92.896C213.927 93.056 214.247 93.136 214.599 93.136Z" fill="#553F2E"/>
<path d="M204.691 94V92.98H207.283C207.619 92.98 207.911 92.904 208.159 92.752C208.415 92.592 208.611 92.384 208.747 92.128C208.883 91.872 208.951 91.6 208.951 91.312C208.951 91.032 208.883 90.772 208.747 90.532C208.619 90.284 208.431 90.088 208.183 89.944C207.943 89.792 207.659 89.716 207.331 89.716H204.907V85.6H209.551V86.62H206.011V88.72H207.475C207.995 88.72 208.451 88.84 208.843 89.08C209.235 89.32 209.539 89.64 209.755 90.04C209.979 90.432 210.091 90.86 210.091 91.324C210.091 91.796 209.979 92.236 209.755 92.644C209.531 93.052 209.219 93.38 208.819 93.628C208.419 93.876 207.955 94 207.427 94H204.691Z" fill="#553F2E"/>
<path d="M199.988 92.512V90.316H197.768V89.332H199.988V87.124H201.032V89.332H203.264V90.316H201.032V92.512H199.988Z" fill="#553F2E"/>
<path d="M94.9741 64V58.89C94.9741 58.2553 95.1515 57.7607 95.5061 57.406C95.8701 57.042 96.3695 56.86 97.0041 56.86H98.4741V57.966H97.2421C96.9341 57.966 96.6915 58.0547 96.5141 58.232C96.3461 58.4093 96.2621 58.6567 96.2621 58.974V64H94.9741Z" fill="#553F2E"/>
<path d="M90.6578 64C89.8738 64 89.1784 63.8553 88.5718 63.566C87.9651 63.2673 87.4891 62.852 87.1438 62.32C86.8078 61.7787 86.6398 61.1487 86.6398 60.43C86.6398 59.7207 86.7844 59.086 87.0738 58.526C87.3631 57.9567 87.7644 57.5087 88.2778 57.182C88.7911 56.8553 89.3884 56.692 90.0698 56.692C90.8071 56.692 91.4184 56.8507 91.9038 57.168C92.3984 57.4853 92.7671 57.9147 93.0098 58.456C93.2524 58.988 93.3738 59.5853 93.3738 60.248C93.3738 60.3507 93.3691 60.458 93.3598 60.57C93.3598 60.682 93.3504 60.78 93.3318 60.864H88.0118C88.0584 61.3027 88.2031 61.676 88.4458 61.984C88.6884 62.2827 88.9964 62.5113 89.3698 62.67C89.7524 62.8193 90.1724 62.894 90.6298 62.894H92.4918V64H90.6578ZM87.9978 59.954H92.0718C92.0718 59.7767 92.0531 59.59 92.0158 59.394C91.9784 59.1887 91.9131 58.9927 91.8198 58.806C91.7264 58.61 91.6004 58.4373 91.4418 58.288C91.2924 58.1293 91.1011 58.0033 90.8678 57.91C90.6438 57.8167 90.3778 57.77 90.0698 57.77C89.7431 57.77 89.4538 57.8353 89.2018 57.966C88.9591 58.0873 88.7491 58.2553 88.5718 58.47C88.3944 58.6753 88.2591 58.9087 88.1658 59.17C88.0724 59.4313 88.0164 59.6927 87.9978 59.954Z" fill="#553F2E"/>
<path d="M79.1547 66.842V65.736H82.6547C83 65.736 83.266 65.6333 83.4527 65.428C83.6487 65.2227 83.7467 64.952 83.7467 64.616V62.656H83.7187C83.5414 62.9267 83.3267 63.1693 83.0747 63.384C82.8227 63.5987 82.5334 63.7713 82.2067 63.902C81.88 64.0233 81.5114 64.084 81.1007 64.084C80.4287 64.084 79.836 63.93 79.3227 63.622C78.8094 63.3047 78.408 62.8707 78.1187 62.32C77.8294 61.76 77.6847 61.1207 77.6847 60.402C77.6847 59.702 77.8294 59.072 78.1187 58.512C78.408 57.952 78.8234 57.5087 79.3647 57.182C79.9154 56.8553 80.578 56.692 81.3527 56.692C82.0994 56.692 82.748 56.8507 83.2987 57.168C83.8494 57.4853 84.274 57.9287 84.5727 58.498C84.8807 59.058 85.0347 59.716 85.0347 60.472V64.7C85.0347 65.3533 84.8434 65.8713 84.4607 66.254C84.078 66.646 83.5554 66.842 82.8927 66.842H79.1547ZM81.3387 62.978C81.8147 62.978 82.23 62.866 82.5847 62.642C82.9487 62.418 83.2287 62.1147 83.4247 61.732C83.63 61.34 83.7327 60.9013 83.7327 60.416C83.7327 59.9213 83.6347 59.478 83.4387 59.086C83.2427 58.694 82.9674 58.386 82.6127 58.162C82.258 57.9287 81.8334 57.812 81.3387 57.812C80.8534 57.812 80.4334 57.9287 80.0787 58.162C79.7334 58.386 79.4627 58.6987 79.2667 59.1C79.08 59.492 78.9867 59.9353 78.9867 60.43C78.9867 60.8967 79.08 61.326 79.2667 61.718C79.4627 62.1007 79.7334 62.4087 80.0787 62.642C80.4334 62.866 80.8534 62.978 81.3387 62.978Z" fill="#553F2E"/>
<path d="M71.9939 64.168C71.3032 64.168 70.7059 64.0047 70.2019 63.678C69.6979 63.342 69.3106 62.8893 69.0399 62.32C68.7692 61.7507 68.6339 61.1207 68.6339 60.43C68.6339 59.73 68.7832 59.1 69.0819 58.54C69.3806 57.9707 69.8099 57.5227 70.3699 57.196C70.9299 56.86 71.6019 56.692 72.3859 56.692C73.1419 56.692 73.7906 56.8553 74.3319 57.182C74.8732 57.5087 75.2886 57.952 75.5779 58.512C75.8766 59.072 76.0259 59.6973 76.0259 60.388V64H74.7239V62.544H74.6959C74.5559 62.8147 74.3646 63.076 74.1219 63.328C73.8886 63.5707 73.5946 63.7713 73.2399 63.93C72.8852 64.0887 72.4699 64.168 71.9939 64.168ZM72.3299 63.062C72.7966 63.062 73.2072 62.95 73.5619 62.726C73.9259 62.4927 74.2059 62.1753 74.4019 61.774C74.6072 61.3633 74.7099 60.906 74.7099 60.402C74.7099 59.9073 74.6119 59.464 74.4159 59.072C74.2292 58.68 73.9586 58.372 73.6039 58.148C73.2492 57.9147 72.8339 57.798 72.3579 57.798C71.8539 57.798 71.4199 57.9147 71.0559 58.148C70.7012 58.3813 70.4259 58.6987 70.2299 59.1C70.0432 59.492 69.9499 59.94 69.9499 60.444C69.9499 60.9293 70.0432 61.3727 70.2299 61.774C70.4166 62.166 70.6872 62.4787 71.0419 62.712C71.3966 62.9453 71.8259 63.062 72.3299 63.062Z" fill="#553F2E"/>
<path d="M60.3169 64V59.87C60.3169 59.2353 60.4569 58.68 60.7369 58.204C61.0263 57.728 61.4229 57.3593 61.9269 57.098C62.4309 56.8273 63.0049 56.692 63.6489 56.692C64.3023 56.692 64.8763 56.8273 65.3709 57.098C65.8749 57.3593 66.2669 57.728 66.5469 58.204C66.8363 58.68 66.9809 59.2353 66.9809 59.87V64H65.6929V59.884C65.6929 59.4547 65.5949 59.086 65.3989 58.778C65.2123 58.4607 64.9603 58.218 64.6429 58.05C64.3349 57.882 64.0036 57.798 63.6489 57.798C63.2943 57.798 62.9583 57.882 62.6409 58.05C62.3329 58.218 62.0809 58.4607 61.8849 58.778C61.6983 59.086 61.6049 59.4547 61.6049 59.884V64H60.3169Z" fill="#553F2E"/>
<path d="M54.2341 64.168C53.5435 64.168 52.9461 64.0047 52.4421 63.678C51.9381 63.342 51.5508 62.8893 51.2801 62.32C51.0095 61.7507 50.8741 61.1207 50.8741 60.43C50.8741 59.73 51.0235 59.1 51.3221 58.54C51.6208 57.9707 52.0501 57.5227 52.6101 57.196C53.1701 56.86 53.8421 56.692 54.6261 56.692C55.3821 56.692 56.0308 56.8553 56.5721 57.182C57.1135 57.5087 57.5288 57.952 57.8181 58.512C58.1168 59.072 58.2661 59.6973 58.2661 60.388V64H56.9641V62.544H56.9361C56.7961 62.8147 56.6048 63.076 56.3621 63.328C56.1288 63.5707 55.8348 63.7713 55.4801 63.93C55.1255 64.0887 54.7101 64.168 54.2341 64.168ZM54.5701 63.062C55.0368 63.062 55.4475 62.95 55.8021 62.726C56.1661 62.4927 56.4461 62.1753 56.6421 61.774C56.8475 61.3633 56.9501 60.906 56.9501 60.402C56.9501 59.9073 56.8521 59.464 56.6561 59.072C56.4695 58.68 56.1988 58.372 55.8441 58.148C55.4895 57.9147 55.0741 57.798 54.5981 57.798C54.0941 57.798 53.6601 57.9147 53.2961 58.148C52.9415 58.3813 52.6661 58.6987 52.4701 59.1C52.2835 59.492 52.1901 59.94 52.1901 60.444C52.1901 60.9293 52.2835 61.3727 52.4701 61.774C52.6568 62.166 52.9275 62.4787 53.2821 62.712C53.6368 62.9453 54.0661 63.062 54.5701 63.062Z" fill="#553F2E"/>
<path d="M42.63 64.168C42.126 64.168 41.6733 64.0513 41.272 63.818C40.8707 63.5847 40.5533 63.2673 40.32 62.866C40.096 62.4553 39.984 61.9793 39.984 61.438V56.566C39.984 56.314 39.9233 56.0853 39.802 55.88C39.6807 55.6747 39.5173 55.5113 39.312 55.39C39.1067 55.2687 38.8827 55.208 38.64 55.208C38.3973 55.208 38.1733 55.2687 37.968 55.39C37.772 55.5113 37.6133 55.6747 37.492 55.88C37.38 56.0853 37.324 56.314 37.324 56.566V64H35.98V56.748C35.98 56.2347 36.092 55.7727 36.316 55.362C36.54 54.9513 36.8527 54.6293 37.254 54.396C37.6553 54.1533 38.1173 54.032 38.64 54.032C39.172 54.032 39.6387 54.1533 40.04 54.396C40.4413 54.6293 40.754 54.9513 40.978 55.362C41.202 55.7727 41.314 56.2347 41.314 56.748V61.62C41.314 61.8813 41.3747 62.1147 41.496 62.32C41.6173 62.516 41.776 62.6747 41.972 62.796C42.1773 62.9173 42.3967 62.978 42.63 62.978C42.8633 62.978 43.078 62.9173 43.274 62.796C43.47 62.6747 43.624 62.516 43.736 62.32C43.8573 62.1147 43.918 61.8813 43.918 61.62V56.748C43.918 56.2347 44.03 55.7727 44.254 55.362C44.4873 54.9513 44.8047 54.6293 45.206 54.396C45.6073 54.1533 46.074 54.032 46.606 54.032C47.1287 54.032 47.5907 54.1533 47.992 54.396C48.3933 54.6293 48.706 54.9513 48.93 55.362C49.154 55.7727 49.266 56.2347 49.266 56.748V64H47.922V56.566C47.922 56.314 47.8613 56.0853 47.74 55.88C47.628 55.6747 47.4693 55.5113 47.264 55.39C47.068 55.2687 46.8487 55.208 46.606 55.208C46.354 55.208 46.1253 55.2687 45.92 55.39C45.724 55.5113 45.5653 55.6747 45.444 55.88C45.3227 56.0853 45.262 56.314 45.262 56.566V61.438C45.262 61.9793 45.1453 62.4553 44.912 62.866C44.688 63.2673 44.3753 63.5847 43.974 63.818C43.582 64.0513 43.134 64.168 42.63 64.168Z" fill="#553F2E"/>
<path d="M119.413 42C118.293 42 117.3 41.7933 116.433 41.38C115.567 40.9533 114.887 40.36 114.393 39.6C113.913 38.8267 113.673 37.9267 113.673 36.9C113.673 35.8867 113.88 34.98 114.293 34.18C114.707 33.3667 115.28 32.7267 116.013 32.26C116.747 31.7933 117.6 31.56 118.573 31.56C119.627 31.56 120.5 31.7867 121.193 32.24C121.9 32.6933 122.427 33.3067 122.773 34.08C123.12 34.84 123.293 35.6933 123.293 36.64C123.293 36.7867 123.287 36.94 123.273 37.1C123.273 37.26 123.26 37.4 123.233 37.52H115.633C115.7 38.1467 115.907 38.68 116.253 39.12C116.6 39.5467 117.04 39.8733 117.573 40.1C118.12 40.3133 118.72 40.42 119.373 40.42H122.033V42H119.413ZM115.613 36.22H121.433C121.433 35.9667 121.407 35.7 121.353 35.42C121.3 35.1267 121.207 34.8467 121.073 34.58C120.94 34.3 120.76 34.0533 120.533 33.84C120.32 33.6133 120.047 33.4333 119.713 33.3C119.393 33.1667 119.013 33.1 118.573 33.1C118.107 33.1 117.693 33.1933 117.333 33.38C116.987 33.5533 116.687 33.7933 116.433 34.1C116.18 34.3933 115.987 34.7267 115.853 35.1C115.72 35.4733 115.64 35.8467 115.613 36.22Z" fill="#553F2E"/>
<path d="M106.514 42.24C105.474 42.24 104.554 42.0067 103.754 41.54C102.954 41.06 102.321 40.42 101.854 39.62C101.387 38.8067 101.154 37.9 101.154 36.9C101.154 35.9 101.387 35 101.854 34.2C102.321 33.3867 102.954 32.7467 103.754 32.28C104.554 31.8 105.474 31.56 106.514 31.56C107.554 31.56 108.474 31.8 109.274 32.28C110.087 32.7467 110.721 33.38 111.174 34.18C111.641 34.98 111.874 35.8867 111.874 36.9C111.874 37.9 111.641 38.8067 111.174 39.62C110.721 40.42 110.087 41.06 109.274 41.54C108.474 42.0067 107.554 42.24 106.514 42.24ZM106.514 40.66C107.221 40.66 107.834 40.4933 108.354 40.16C108.874 39.8267 109.281 39.38 109.574 38.82C109.867 38.2467 110.014 37.6067 110.014 36.9C110.014 36.1933 109.867 35.56 109.574 35C109.281 34.4267 108.874 33.9733 108.354 33.64C107.834 33.3067 107.221 33.14 106.514 33.14C105.821 33.14 105.207 33.3067 104.674 33.64C104.154 33.9733 103.747 34.4267 103.454 35C103.161 35.56 103.014 36.1933 103.014 36.9C103.014 37.6067 103.161 38.2467 103.454 38.82C103.747 39.38 104.154 39.8267 104.674 40.16C105.207 40.4933 105.821 40.66 106.514 40.66Z" fill="#553F2E"/>
<path d="M87.6333 42V28H92.1133C93.6066 28 94.8933 28.3 95.9733 28.9C97.0666 29.5 97.9133 30.3267 98.5133 31.38C99.1133 32.4333 99.4133 33.64 99.4133 35C99.4133 36.36 99.1133 37.5667 98.5133 38.62C97.9133 39.6733 97.0666 40.5 95.9733 41.1C94.8933 41.7 93.6066 42 92.1133 42H87.6333ZM89.5533 40.3H92.1333C93.1733 40.3 94.0933 40.0867 94.8933 39.66C95.7066 39.2333 96.3466 38.6267 96.8133 37.84C97.28 37.04 97.5133 36.0933 97.5133 35C97.5133 33.8933 97.28 32.9467 96.8133 32.16C96.3466 31.3733 95.7066 30.7667 94.8933 30.34C94.0933 29.9133 93.1733 29.7 92.1333 29.7H89.5533V40.3Z" fill="#553F2E"/>
<path d="M69.8389 42V36.1C69.8389 35.1933 70.0389 34.4 70.4389 33.72C70.8522 33.04 71.4189 32.5133 72.1389 32.14C72.8589 31.7533 73.6789 31.56 74.5989 31.56C75.5322 31.56 76.3522 31.7533 77.0589 32.14C77.7789 32.5133 78.3389 33.04 78.7389 33.72C79.1522 34.4 79.3589 35.1933 79.3589 36.1V42H77.5189V36.12C77.5189 35.5067 77.3789 34.98 77.0989 34.54C76.8322 34.0867 76.4722 33.74 76.0189 33.5C75.5789 33.26 75.1056 33.14 74.5989 33.14C74.0922 33.14 73.6122 33.26 73.1589 33.5C72.7189 33.74 72.3589 34.0867 72.0789 34.54C71.8122 34.98 71.6789 35.5067 71.6789 36.12V42H69.8389Z" fill="#553F2E"/>
<path d="M57.2412 42V27.4H59.0812V33.12C59.4946 32.5867 59.9946 32.1933 60.5812 31.94C61.1812 31.6867 61.8012 31.56 62.4412 31.56C63.3479 31.56 64.1346 31.7533 64.8012 32.14C65.4679 32.5133 65.9879 33.04 66.3612 33.72C66.7346 34.4 66.9212 35.1933 66.9212 36.1V42H65.0812V36.12C65.0812 35.5067 64.9412 34.98 64.6612 34.54C64.3812 34.0867 64.0079 33.74 63.5412 33.5C63.0879 33.26 62.6012 33.14 62.0812 33.14C61.5612 33.14 61.0746 33.26 60.6212 33.5C60.1679 33.7267 59.7946 34.06 59.5012 34.5C59.2212 34.94 59.0812 35.4667 59.0812 36.08V42H57.2412Z" fill="#553F2E"/>
<path d="M49.5217 42.24C48.4817 42.24 47.5617 42.0067 46.7617 41.54C45.9617 41.06 45.3284 40.42 44.8617 39.62C44.395 38.8067 44.1617 37.9 44.1617 36.9C44.1617 35.9 44.395 35 44.8617 34.2C45.3284 33.3867 45.9617 32.7467 46.7617 32.28C47.5617 31.8 48.4817 31.56 49.5217 31.56C50.5617 31.56 51.4817 31.8 52.2817 32.28C53.095 32.7467 53.7284 33.38 54.1817 34.18C54.6484 34.98 54.8817 35.8867 54.8817 36.9C54.8817 37.9 54.6484 38.8067 54.1817 39.62C53.7284 40.42 53.095 41.06 52.2817 41.54C51.4817 42.0067 50.5617 42.24 49.5217 42.24ZM49.5217 40.66C50.2284 40.66 50.8417 40.4933 51.3617 40.16C51.8817 39.8267 52.2884 39.38 52.5817 38.82C52.875 38.2467 53.0217 37.6067 53.0217 36.9C53.0217 36.1933 52.875 35.56 52.5817 35C52.2884 34.4267 51.8817 33.9733 51.3617 33.64C50.8417 33.3067 50.2284 33.14 49.5217 33.14C48.8284 33.14 48.215 33.3067 47.6817 33.64C47.1617 33.9733 46.755 34.4267 46.4617 35C46.1684 35.56 46.0217 36.1933 46.0217 36.9C46.0217 37.6067 46.1684 38.2467 46.4617 38.82C46.755 39.38 47.1617 39.8267 47.6817 40.16C48.215 40.4933 48.8284 40.66 49.5217 40.66Z" fill="#553F2E"/>
<path d="M38.52 46.34C37.8667 46.34 37.2867 46.22 36.78 45.98C36.2867 45.74 35.9 45.38 35.62 44.9C35.34 44.42 35.2 43.8333 35.2 43.14C35.2 42.5133 35.3267 41.8267 35.58 41.08C35.8333 40.3333 36.2933 39.5533 36.96 38.74C37.6267 37.9267 38.5867 37.12 39.84 36.32V29.7H36.82V28H41.74V42.82C41.74 43.54 41.6067 44.16 41.34 44.68C41.0867 45.2133 40.72 45.62 40.24 45.9C39.76 46.1933 39.1867 46.34 38.52 46.34ZM38.38 44.62C38.66 44.62 38.9067 44.5533 39.12 44.42C39.3467 44.3 39.52 44.1067 39.64 43.84C39.76 43.5733 39.82 43.2467 39.82 42.86V38.3C39.0867 38.8467 38.5133 39.3867 38.1 39.92C37.6867 40.44 37.4 40.9533 37.24 41.46C37.08 41.9533 37 42.4467 37 42.94C37 43.5 37.14 43.92 37.42 44.2C37.7 44.48 38.02 44.62 38.38 44.62Z" fill="#553F2E"/>
<path d="M192.631 92.4503C192.771 92.591 192.876 92.7627 192.938 92.9515C192.999 93.1404 193.015 93.3411 192.985 93.5373C192.955 93.7336 192.878 93.9199 192.762 94.0812C192.646 94.2424 192.494 94.3742 192.318 94.4657C191.311 95.0041 190.137 95.1417 189.032 94.8509C186.101 94.1129 181.887 89.8992 181.149 86.9676C180.858 85.8631 180.996 84.6894 181.534 83.6821C181.626 83.5058 181.758 83.3536 181.919 83.2377C182.08 83.1218 182.266 83.0455 182.463 83.015C182.659 82.9845 182.86 83.0007 183.048 83.0621C183.237 83.1236 183.409 83.2287 183.55 83.3689L184.801 84.6193C184.981 84.7979 185.103 85.0269 185.151 85.2763C185.198 85.5256 185.169 85.7835 185.068 86.0161C184.956 86.2769 184.798 86.5153 184.601 86.7192C183.17 88.1496 187.851 92.8301 189.281 91.3991C189.485 91.2013 189.723 91.0424 189.985 90.9305C190.217 90.8286 190.475 90.7995 190.724 90.8472C190.974 90.8948 191.203 91.017 191.381 91.1975L192.631 92.4503Z" fill="black"/>
<g clip-path="url(#clip1_3_48)">
<path d="M183.897 107.94L183.63 107.702L182.279 109.511L182.546 109.748L183.897 107.94Z" fill="#282D33"/>
<path d="M192.722 109.511L191.354 107.68L191.086 107.917L192.454 109.748L192.722 109.511Z" fill="#282D33"/>
<path d="M192.723 115.98H182.277V109.492H182.623V115.603H192.377V109.492H192.723V115.98Z" fill="#282D33"/>
<path d="M185.624 113.016L185.392 112.737L182.375 115.721L182.607 116L185.624 113.016Z" fill="#282D33"/>
<path d="M192.625 115.721L189.607 112.737L189.376 113.016L192.393 116L192.625 115.721Z" fill="#282D33"/>
<path d="M189.545 112.968H185.455L183.642 110.947V104H191.358V110.947L189.545 112.968ZM185.6 112.591H189.4L191.013 110.793V104.377H183.987V110.793L185.6 112.591Z" fill="#282D33"/>
<path d="M187.547 110.751C186.424 110.751 185.511 109.762 185.511 108.547C185.511 107.331 186.425 106.342 187.547 106.342C188.16 106.342 188.734 106.637 189.122 107.15L188.856 107.39C188.533 106.963 188.056 106.719 187.547 106.719C186.615 106.719 185.856 107.539 185.856 108.547C185.856 109.555 186.615 110.375 187.547 110.375C187.919 110.375 188.272 110.247 188.567 110.005L188.774 110.306C188.419 110.597 187.994 110.751 187.547 110.751Z" fill="#282D33"/>
<path d="M187.211 109.63C187.131 109.63 187.046 109.616 186.96 109.589C186.698 109.507 186.501 109.271 186.431 108.956C186.338 108.532 186.482 108.062 186.809 107.73C187.094 107.439 187.484 107.378 187.76 107.378C187.992 107.378 188.166 107.42 188.173 107.422L188.354 107.467L188.3 107.661C188.286 107.71 187.962 108.858 187.905 109.038C187.785 109.408 187.526 109.63 187.211 109.63ZM187.76 107.755C187.546 107.755 187.247 107.798 187.044 108.005C186.762 108.291 186.716 108.638 186.767 108.868C186.807 109.052 186.912 109.183 187.054 109.227C187.11 109.244 187.163 109.253 187.211 109.253C187.425 109.253 187.529 109.068 187.579 108.913C187.62 108.786 187.811 108.111 187.91 107.762C187.866 107.758 187.815 107.755 187.76 107.755Z" fill="#282D33"/>
<path d="M188.332 109.61C188.157 109.61 187.994 109.544 187.865 109.417C187.598 109.154 187.782 108.264 187.915 107.757L188.247 107.861C188.099 108.423 188.029 109.034 188.1 109.141C188.227 109.267 188.391 109.242 188.504 109.199C188.765 109.1 189.064 108.775 189.13 108.343C189.179 108.031 189.122 107.561 188.578 107.092L188.792 106.797C189.504 107.411 189.523 108.068 189.471 108.406C189.391 108.922 189.04 109.394 188.618 109.555C188.521 109.592 188.425 109.61 188.332 109.61Z" fill="#282D33"/>
<path d="M189.427 112.968H185.573L182.408 109.64L182.647 109.369L185.712 112.591H189.288L192.353 109.369L192.593 109.64L189.427 112.968Z" fill="#282D33"/>
</g>
<path d="M291.175 114C290.503 114 289.907 113.876 289.387 113.628C288.867 113.372 288.459 113.016 288.163 112.56C287.875 112.096 287.731 111.556 287.731 110.94C287.731 110.332 287.855 109.788 288.103 109.308C288.351 108.82 288.695 108.436 289.135 108.156C289.575 107.876 290.087 107.736 290.671 107.736C291.303 107.736 291.827 107.872 292.243 108.144C292.667 108.416 292.983 108.784 293.191 109.248C293.399 109.704 293.503 110.216 293.503 110.784C293.503 110.872 293.499 110.964 293.491 111.06C293.491 111.156 293.483 111.24 293.467 111.312H288.907C288.947 111.688 289.071 112.008 289.279 112.272C289.487 112.528 289.751 112.724 290.071 112.86C290.399 112.988 290.759 113.052 291.151 113.052H292.747V114H291.175ZM288.895 110.532H292.387C292.387 110.38 292.371 110.22 292.339 110.052C292.307 109.876 292.251 109.708 292.171 109.548C292.091 109.38 291.983 109.232 291.847 109.104C291.719 108.968 291.555 108.86 291.355 108.78C291.163 108.7 290.935 108.66 290.671 108.66C290.391 108.66 290.143 108.716 289.927 108.828C289.719 108.932 289.539 109.076 289.387 109.26C289.235 109.436 289.119 109.636 289.039 109.86C288.959 110.084 288.911 110.308 288.895 110.532Z" fill="#553F2E"/>
<path d="M276.419 114V110.316C276.419 109.844 276.527 109.412 276.743 109.02C276.959 108.628 277.271 108.316 277.679 108.084C278.087 107.852 278.579 107.736 279.155 107.736C279.435 107.736 279.715 107.776 279.995 107.856C280.275 107.928 280.535 108.056 280.775 108.24C281.015 108.416 281.207 108.656 281.351 108.96H281.363C281.523 108.656 281.723 108.416 281.963 108.24C282.203 108.056 282.463 107.928 282.743 107.856C283.023 107.776 283.307 107.736 283.595 107.736C284.163 107.736 284.651 107.852 285.059 108.084C285.467 108.316 285.779 108.628 285.995 109.02C286.211 109.412 286.319 109.844 286.319 110.316V114H285.215V110.316C285.215 110.012 285.143 109.736 284.999 109.488C284.855 109.24 284.659 109.044 284.411 108.9C284.171 108.756 283.895 108.684 283.583 108.684C283.279 108.684 282.999 108.76 282.743 108.912C282.487 109.056 282.283 109.252 282.131 109.5C281.987 109.74 281.915 110.012 281.915 110.316V114H280.811V110.316C280.811 110.012 280.735 109.74 280.583 109.5C280.439 109.252 280.239 109.056 279.983 108.912C279.735 108.76 279.455 108.684 279.143 108.684C278.839 108.684 278.563 108.756 278.315 108.9C278.075 109.044 277.883 109.24 277.739 109.488C277.595 109.736 277.523 110.012 277.523 110.316V114H276.419Z" fill="#553F2E"/>
<path d="M274.295 114.12C274.079 114.12 273.891 114.044 273.731 113.892C273.579 113.732 273.503 113.544 273.503 113.328C273.503 113.112 273.579 112.928 273.731 112.776C273.891 112.616 274.079 112.536 274.295 112.536C274.511 112.536 274.695 112.616 274.847 112.776C275.007 112.928 275.087 113.112 275.087 113.328C275.087 113.472 275.051 113.604 274.979 113.724C274.915 113.844 274.823 113.94 274.703 114.012C274.583 114.084 274.447 114.12 274.295 114.12Z" fill="#553F2E"/>
<path d="M268.762 116.436V114.096C268.314 114.032 267.914 113.884 267.562 113.652C267.218 113.412 266.946 113.104 266.746 112.728C266.546 112.344 266.446 111.908 266.446 111.42V107.88H267.562V111.408C267.562 111.776 267.642 112.096 267.802 112.368C267.962 112.632 268.174 112.836 268.438 112.98C268.71 113.124 268.998 113.196 269.302 113.196C269.614 113.196 269.902 113.124 270.166 112.98C270.438 112.836 270.654 112.632 270.814 112.368C270.982 112.096 271.066 111.776 271.066 111.408V107.88H272.17V111.42C272.17 111.908 272.07 112.34 271.87 112.716C271.678 113.092 271.406 113.4 271.054 113.64C270.71 113.872 270.314 114.024 269.866 114.096V116.436H268.762Z" fill="#553F2E"/>
<path d="M262.447 114V108.828H261.379V107.88H262.447V106.98C262.447 106.436 262.599 106.012 262.903 105.708C263.215 105.396 263.643 105.24 264.187 105.24H265.699V106.188H264.403C264.131 106.188 263.923 106.264 263.779 106.416C263.635 106.568 263.563 106.78 263.563 107.052V107.88H265.459V108.828H263.563V114H262.447Z" fill="#553F2E"/>
<path d="M259.228 114V107.88H260.344V114H259.228ZM259.792 106.908C259.592 106.908 259.416 106.836 259.264 106.692C259.12 106.54 259.048 106.364 259.048 106.164C259.048 105.964 259.12 105.792 259.264 105.648C259.416 105.496 259.592 105.42 259.792 105.42C259.992 105.42 260.164 105.496 260.308 105.648C260.46 105.792 260.536 105.964 260.536 106.164C260.536 106.364 260.46 106.54 260.308 106.692C260.164 106.836 259.992 106.908 259.792 106.908Z" fill="#553F2E"/>
<path d="M249.514 114.144C249.13 114.144 248.782 114.072 248.47 113.928C248.166 113.776 247.922 113.544 247.738 113.232C247.554 112.912 247.462 112.504 247.462 112.008V107.88H248.566V112.2C248.566 112.416 248.61 112.6 248.698 112.752C248.786 112.904 248.902 113.016 249.046 113.088C249.19 113.16 249.342 113.196 249.502 113.196C249.662 113.196 249.814 113.16 249.958 113.088C250.102 113.008 250.218 112.896 250.306 112.752C250.402 112.6 250.45 112.416 250.45 112.2V109.824C250.45 109.352 250.538 108.964 250.714 108.66C250.89 108.348 251.13 108.116 251.434 107.964C251.738 107.812 252.082 107.736 252.466 107.736C252.85 107.736 253.194 107.812 253.498 107.964C253.802 108.116 254.042 108.348 254.218 108.66C254.394 108.964 254.482 109.352 254.482 109.824V112.2C254.482 112.416 254.526 112.6 254.614 112.752C254.702 112.896 254.818 113.008 254.962 113.088C255.106 113.16 255.262 113.196 255.43 113.196C255.598 113.196 255.75 113.16 255.886 113.088C256.022 113.008 256.134 112.896 256.222 112.752C256.31 112.6 256.354 112.416 256.354 112.2V107.88H257.47V112.008C257.47 112.504 257.378 112.912 257.194 113.232C257.01 113.544 256.762 113.776 256.45 113.928C256.146 114.072 255.806 114.144 255.43 114.144C255.062 114.144 254.722 114.072 254.41 113.928C254.098 113.776 253.846 113.544 253.654 113.232C253.47 112.912 253.378 112.504 253.378 112.008V109.656C253.378 109.432 253.334 109.248 253.246 109.104C253.158 108.96 253.046 108.856 252.91 108.792C252.774 108.72 252.626 108.684 252.466 108.684C252.306 108.684 252.154 108.72 252.01 108.792C251.874 108.856 251.762 108.96 251.674 109.104C251.594 109.248 251.554 109.432 251.554 109.656V112.008C251.554 112.504 251.458 112.912 251.266 113.232C251.082 113.544 250.834 113.776 250.522 113.928C250.218 114.072 249.882 114.144 249.514 114.144Z" fill="#553F2E"/>
<path d="M240.551 116.616C239.695 116.608 238.907 116.456 238.187 116.16C237.467 115.872 236.843 115.472 236.315 114.96C235.795 114.448 235.391 113.856 235.103 113.184C234.815 112.504 234.671 111.776 234.671 111C234.671 110.224 234.815 109.496 235.103 108.816C235.399 108.136 235.803 107.54 236.315 107.028C236.835 106.516 237.435 106.116 238.115 105.828C238.803 105.532 239.539 105.384 240.323 105.384C241.107 105.384 241.839 105.532 242.519 105.828C243.207 106.116 243.807 106.516 244.319 107.028C244.839 107.54 245.243 108.136 245.531 108.816C245.827 109.496 245.975 110.224 245.975 111C245.975 111.488 245.899 111.928 245.747 112.32C245.603 112.712 245.379 113.024 245.075 113.256C244.771 113.48 244.383 113.592 243.911 113.592C243.519 113.592 243.179 113.496 242.891 113.304C242.611 113.112 242.391 112.856 242.231 112.536C242.015 112.856 241.743 113.112 241.415 113.304C241.087 113.496 240.719 113.592 240.311 113.592C239.839 113.592 239.403 113.476 239.003 113.244C238.611 113.012 238.295 112.7 238.055 112.308C237.823 111.908 237.707 111.472 237.707 111C237.707 110.52 237.823 110.084 238.055 109.692C238.295 109.3 238.611 108.988 239.003 108.756C239.403 108.516 239.839 108.396 240.311 108.396C240.791 108.396 241.227 108.516 241.619 108.756C242.019 108.988 242.335 109.3 242.567 109.692C242.799 110.084 242.915 110.52 242.915 111V111.552C242.915 111.76 242.959 111.944 243.047 112.104C243.135 112.264 243.255 112.388 243.407 112.476C243.559 112.564 243.723 112.608 243.899 112.608C244.171 112.608 244.383 112.532 244.535 112.38C244.687 112.228 244.795 112.032 244.859 111.792C244.923 111.544 244.955 111.28 244.955 111C244.955 110.368 244.835 109.776 244.595 109.224C244.355 108.664 244.023 108.172 243.599 107.748C243.175 107.324 242.683 106.992 242.123 106.752C241.571 106.512 240.971 106.392 240.323 106.392C239.683 106.392 239.083 106.512 238.523 106.752C237.963 106.992 237.471 107.324 237.047 107.748C236.623 108.172 236.291 108.664 236.051 109.224C235.819 109.776 235.703 110.368 235.703 111C235.703 111.632 235.819 112.224 236.051 112.776C236.283 113.328 236.615 113.812 237.047 114.228C237.479 114.652 237.991 114.984 238.583 115.224C239.175 115.464 239.831 115.588 240.551 115.596H240.959V116.616H240.551ZM240.311 112.608C240.623 112.608 240.895 112.532 241.127 112.38C241.367 112.228 241.555 112.032 241.691 111.792C241.827 111.544 241.895 111.28 241.895 111C241.895 110.72 241.827 110.46 241.691 110.22C241.555 109.972 241.367 109.772 241.127 109.62C240.895 109.468 240.623 109.392 240.311 109.392C240.007 109.392 239.735 109.468 239.495 109.62C239.255 109.772 239.067 109.972 238.931 110.22C238.803 110.46 238.739 110.72 238.739 111C238.739 111.28 238.803 111.544 238.931 111.792C239.067 112.032 239.255 112.228 239.495 112.38C239.735 112.532 240.007 112.608 240.311 112.608Z" fill="#553F2E"/>
<path d="M230.091 114.144C229.627 114.144 229.203 114.072 228.819 113.928C228.435 113.776 228.103 113.556 227.823 113.268C227.543 112.98 227.323 112.636 227.163 112.236C227.011 111.828 226.935 111.372 226.935 110.868C226.935 110.228 227.063 109.676 227.319 109.212C227.583 108.74 227.939 108.376 228.387 108.12C228.843 107.864 229.351 107.736 229.911 107.736C230.223 107.736 230.519 107.788 230.799 107.892C231.087 107.996 231.343 108.14 231.567 108.324C231.791 108.508 231.967 108.724 232.095 108.972H232.119V105.24H233.223V110.904C233.223 111.584 233.083 112.168 232.803 112.656C232.531 113.136 232.159 113.504 231.687 113.76C231.223 114.016 230.691 114.144 230.091 114.144ZM230.091 113.196C230.467 113.196 230.807 113.104 231.111 112.92C231.415 112.736 231.655 112.476 231.831 112.14C232.015 111.804 232.107 111.408 232.107 110.952C232.107 110.488 232.015 110.088 231.831 109.752C231.655 109.408 231.415 109.144 231.111 108.96C230.807 108.776 230.463 108.684 230.079 108.684C229.703 108.684 229.359 108.78 229.047 108.972C228.743 109.164 228.499 109.428 228.315 109.764C228.139 110.1 228.051 110.492 228.051 110.94C228.051 111.404 228.143 111.804 228.327 112.14C228.511 112.476 228.755 112.736 229.059 112.92C229.371 113.104 229.715 113.196 230.091 113.196Z" fill="#553F2E"/>
<path d="M219.806 114V110.46C219.806 109.916 219.926 109.44 220.166 109.032C220.414 108.624 220.754 108.308 221.186 108.084C221.618 107.852 222.11 107.736 222.662 107.736C223.222 107.736 223.714 107.852 224.138 108.084C224.57 108.308 224.906 108.624 225.146 109.032C225.394 109.44 225.518 109.916 225.518 110.46V114H224.414V110.472C224.414 110.104 224.33 109.788 224.162 109.524C224.002 109.252 223.786 109.044 223.514 108.9C223.25 108.756 222.966 108.684 222.662 108.684C222.358 108.684 222.07 108.756 221.798 108.9C221.534 109.044 221.318 109.252 221.15 109.524C220.99 109.788 220.91 110.104 220.91 110.472V114H219.806Z" fill="#553F2E"/>
<path d="M212.247 114V105.24H213.351V108.672C213.599 108.352 213.899 108.116 214.251 107.964C214.611 107.812 214.983 107.736 215.367 107.736C215.911 107.736 216.383 107.852 216.783 108.084C217.183 108.308 217.495 108.624 217.719 109.032C217.943 109.44 218.055 109.916 218.055 110.46V114H216.951V110.472C216.951 110.104 216.867 109.788 216.699 109.524C216.531 109.252 216.307 109.044 216.027 108.9C215.755 108.756 215.463 108.684 215.151 108.684C214.839 108.684 214.547 108.756 214.275 108.9C214.003 109.036 213.779 109.236 213.603 109.5C213.435 109.764 213.351 110.08 213.351 110.448V114H212.247Z" fill="#553F2E"/>
<path d="M207.615 114.144C206.991 114.144 206.439 114.004 205.959 113.724C205.479 113.436 205.099 113.052 204.819 112.572C204.539 112.084 204.399 111.54 204.399 110.94C204.399 110.34 204.539 109.8 204.819 109.32C205.099 108.832 205.479 108.448 205.959 108.168C206.439 107.88 206.991 107.736 207.615 107.736C208.239 107.736 208.791 107.88 209.271 108.168C209.759 108.448 210.139 108.828 210.411 109.308C210.691 109.788 210.831 110.332 210.831 110.94C210.831 111.54 210.691 112.084 210.411 112.572C210.139 113.052 209.759 113.436 209.271 113.724C208.791 114.004 208.239 114.144 207.615 114.144ZM207.615 113.196C208.039 113.196 208.407 113.096 208.719 112.896C209.031 112.696 209.275 112.428 209.451 112.092C209.627 111.748 209.715 111.364 209.715 110.94C209.715 110.516 209.627 110.136 209.451 109.8C209.275 109.456 209.031 109.184 208.719 108.984C208.407 108.784 208.039 108.684 207.615 108.684C207.199 108.684 206.831 108.784 206.511 108.984C206.199 109.184 205.955 109.456 205.779 109.8C205.603 110.136 205.515 110.516 205.515 110.94C205.515 111.364 205.603 111.748 205.779 112.092C205.955 112.428 206.199 112.696 206.511 112.896C206.831 113.096 207.199 113.196 207.615 113.196Z" fill="#553F2E"/>
<path d="M200.076 115.98V115.032H201.048C201.32 115.032 201.528 114.952 201.672 114.792C201.816 114.64 201.888 114.432 201.888 114.168V107.88H202.992V114.24C202.992 114.776 202.836 115.2 202.524 115.512C202.212 115.824 201.784 115.98 201.24 115.98H200.076ZM202.428 106.896C202.228 106.896 202.052 106.824 201.9 106.68C201.756 106.528 201.684 106.352 201.684 106.152C201.684 105.952 201.756 105.78 201.9 105.636C202.052 105.484 202.228 105.408 202.428 105.408C202.628 105.408 202.8 105.484 202.944 105.636C203.096 105.78 203.172 105.952 203.172 106.152C203.172 106.352 203.096 106.528 202.944 106.68C202.8 106.824 202.628 106.896 202.428 106.896Z" fill="#553F2E"/>
<path d="M245.59 134C244.918 134 244.322 133.876 243.802 133.628C243.282 133.372 242.874 133.016 242.578 132.56C242.29 132.096 242.146 131.556 242.146 130.94C242.146 130.332 242.27 129.788 242.518 129.308C242.766 128.82 243.11 128.436 243.55 128.156C243.99 127.876 244.502 127.736 245.086 127.736C245.718 127.736 246.242 127.872 246.658 128.144C247.082 128.416 247.398 128.784 247.606 129.248C247.814 129.704 247.918 130.216 247.918 130.784C247.918 130.872 247.914 130.964 247.906 131.06C247.906 131.156 247.898 131.24 247.882 131.312H243.322C243.362 131.688 243.486 132.008 243.694 132.272C243.902 132.528 244.166 132.724 244.486 132.86C244.814 132.988 245.174 133.052 245.566 133.052H247.162V134H245.59ZM243.31 130.532H246.802C246.802 130.38 246.786 130.22 246.754 130.052C246.722 129.876 246.666 129.708 246.586 129.548C246.506 129.38 246.398 129.232 246.262 129.104C246.134 128.968 245.97 128.86 245.77 128.78C245.578 128.7 245.35 128.66 245.086 128.66C244.806 128.66 244.558 128.716 244.342 128.828C244.134 128.932 243.954 129.076 243.802 129.26C243.65 129.436 243.534 129.636 243.454 129.86C243.374 130.084 243.326 130.308 243.31 130.532Z" fill="#553F2E"/>
<path d="M230.833 134V130.316C230.833 129.844 230.941 129.412 231.157 129.02C231.373 128.628 231.685 128.316 232.093 128.084C232.501 127.852 232.993 127.736 233.569 127.736C233.849 127.736 234.129 127.776 234.409 127.856C234.689 127.928 234.949 128.056 235.189 128.24C235.429 128.416 235.621 128.656 235.765 128.96H235.777C235.937 128.656 236.137 128.416 236.377 128.24C236.617 128.056 236.877 127.928 237.157 127.856C237.437 127.776 237.721 127.736 238.009 127.736C238.577 127.736 239.065 127.852 239.473 128.084C239.881 128.316 240.193 128.628 240.409 129.02C240.625 129.412 240.733 129.844 240.733 130.316V134H239.629V130.316C239.629 130.012 239.557 129.736 239.413 129.488C239.269 129.24 239.073 129.044 238.825 128.9C238.585 128.756 238.309 128.684 237.997 128.684C237.693 128.684 237.413 128.76 237.157 128.912C236.901 129.056 236.697 129.252 236.545 129.5C236.401 129.74 236.329 130.012 236.329 130.316V134H235.225V130.316C235.225 130.012 235.149 129.74 234.997 129.5C234.853 129.252 234.653 129.056 234.397 128.912C234.149 128.76 233.869 128.684 233.557 128.684C233.253 128.684 232.977 128.756 232.729 128.9C232.489 129.044 232.297 129.24 232.153 129.488C232.009 129.736 231.937 130.012 231.937 130.316V134H230.833Z" fill="#553F2E"/>
<path d="M228.709 134.12C228.493 134.12 228.305 134.044 228.145 133.892C227.993 133.732 227.917 133.544 227.917 133.328C227.917 133.112 227.993 132.928 228.145 132.776C228.305 132.616 228.493 132.536 228.709 132.536C228.925 132.536 229.109 132.616 229.261 132.776C229.421 132.928 229.501 133.112 229.501 133.328C229.501 133.472 229.465 133.604 229.393 133.724C229.329 133.844 229.237 133.94 229.117 134.012C228.997 134.084 228.861 134.12 228.709 134.12Z" fill="#553F2E"/>
<path d="M223.176 136.436V134.096C222.728 134.032 222.328 133.884 221.976 133.652C221.632 133.412 221.36 133.104 221.16 132.728C220.96 132.344 220.86 131.908 220.86 131.42V127.88H221.976V131.408C221.976 131.776 222.056 132.096 222.216 132.368C222.376 132.632 222.588 132.836 222.852 132.98C223.124 133.124 223.412 133.196 223.716 133.196C224.028 133.196 224.316 133.124 224.58 132.98C224.852 132.836 225.068 132.632 225.228 132.368C225.396 132.096 225.48 131.776 225.48 131.408V127.88H226.584V131.42C226.584 131.908 226.484 132.34 226.284 132.716C226.092 133.092 225.82 133.4 225.468 133.64C225.124 133.872 224.728 134.024 224.28 134.096V136.436H223.176Z" fill="#553F2E"/>
<path d="M216.861 134V128.828H215.793V127.88H216.861V126.98C216.861 126.436 217.013 126.012 217.317 125.708C217.629 125.396 218.057 125.24 218.601 125.24H220.113V126.188H218.817C218.545 126.188 218.337 126.264 218.193 126.416C218.049 126.568 217.977 126.78 217.977 127.052V127.88H219.873V128.828H217.977V134H216.861Z" fill="#553F2E"/>
<path d="M213.642 134V127.88H214.758V134H213.642ZM214.206 126.908C214.006 126.908 213.83 126.836 213.678 126.692C213.534 126.54 213.462 126.364 213.462 126.164C213.462 125.964 213.534 125.792 213.678 125.648C213.83 125.496 214.006 125.42 214.206 125.42C214.406 125.42 214.578 125.496 214.722 125.648C214.874 125.792 214.95 125.964 214.95 126.164C214.95 126.364 214.874 126.54 214.722 126.692C214.578 126.836 214.406 126.908 214.206 126.908Z" fill="#553F2E"/>
<path d="M203.928 134.144C203.544 134.144 203.196 134.072 202.884 133.928C202.58 133.776 202.336 133.544 202.152 133.232C201.968 132.912 201.876 132.504 201.876 132.008V127.88H202.98V132.2C202.98 132.416 203.024 132.6 203.112 132.752C203.2 132.904 203.316 133.016 203.46 133.088C203.604 133.16 203.756 133.196 203.916 133.196C204.076 133.196 204.228 133.16 204.372 133.088C204.516 133.008 204.632 132.896 204.72 132.752C204.816 132.6 204.864 132.416 204.864 132.2V129.824C204.864 129.352 204.952 128.964 205.128 128.66C205.304 128.348 205.544 128.116 205.848 127.964C206.152 127.812 206.496 127.736 206.88 127.736C207.264 127.736 207.608 127.812 207.912 127.964C208.216 128.116 208.456 128.348 208.632 128.66C208.808 128.964 208.896 129.352 208.896 129.824V132.2C208.896 132.416 208.94 132.6 209.028 132.752C209.116 132.896 209.232 133.008 209.376 133.088C209.52 133.16 209.676 133.196 209.844 133.196C210.012 133.196 210.164 133.16 210.3 133.088C210.436 133.008 210.548 132.896 210.636 132.752C210.724 132.6 210.768 132.416 210.768 132.2V127.88H211.884V132.008C211.884 132.504 211.792 132.912 211.608 133.232C211.424 133.544 211.176 133.776 210.864 133.928C210.56 134.072 210.22 134.144 209.844 134.144C209.476 134.144 209.136 134.072 208.824 133.928C208.512 133.776 208.26 133.544 208.068 133.232C207.884 132.912 207.792 132.504 207.792 132.008V129.656C207.792 129.432 207.748 129.248 207.66 129.104C207.572 128.96 207.46 128.856 207.324 128.792C207.188 128.72 207.04 128.684 206.88 128.684C206.72 128.684 206.568 128.72 206.424 128.792C206.288 128.856 206.176 128.96 206.088 129.104C206.008 129.248 205.968 129.432 205.968 129.656V132.008C205.968 132.504 205.872 132.912 205.68 133.232C205.496 133.544 205.248 133.776 204.936 133.928C204.632 134.072 204.296 134.144 203.928 134.144Z" fill="#553F2E"/>
<g clip-path="url(#clip2_3_48)">
<path d="M192.46 127.912C192.381 127.299 192.078 126.728 191.602 126.292C191.126 125.855 190.504 125.578 189.835 125.505C187.959 125.302 186.063 125.302 184.187 125.505C183.519 125.578 182.896 125.855 182.42 126.292C181.944 126.728 181.642 127.299 181.562 127.912C181.341 129.631 181.341 131.369 181.562 133.088C181.642 133.701 181.944 134.272 182.42 134.708C182.896 135.145 183.519 135.422 184.187 135.495C186.063 135.698 187.959 135.698 189.835 135.495C190.504 135.422 191.126 135.145 191.602 134.708C192.078 134.272 192.381 133.701 192.46 133.088C192.681 131.369 192.681 129.631 192.46 127.912ZM191.71 133.009C191.652 133.472 191.425 133.904 191.066 134.234C190.706 134.563 190.235 134.771 189.73 134.824C187.911 135.017 186.074 135.017 184.255 134.824C183.751 134.77 183.282 134.561 182.924 134.232C182.566 133.902 182.34 133.471 182.282 133.009C182.072 131.342 182.072 129.658 182.282 127.991C182.34 127.528 182.567 127.096 182.927 126.766C183.287 126.437 183.757 126.229 184.262 126.176C186.081 125.983 187.919 125.983 189.737 126.176C190.243 126.229 190.713 126.437 191.073 126.766C191.433 127.096 191.66 127.528 191.717 127.991C191.927 129.658 191.927 131.342 191.717 133.009H191.71Z" fill="black"/>
<path d="M187 127.062C186.258 127.062 185.533 127.264 184.917 127.642C184.3 128.02 183.819 128.556 183.535 129.185C183.252 129.813 183.177 130.504 183.322 131.171C183.467 131.837 183.824 132.45 184.348 132.931C184.873 133.411 185.541 133.739 186.268 133.871C186.996 134.004 187.75 133.936 188.435 133.676C189.12 133.416 189.706 132.975 190.118 132.41C190.53 131.844 190.75 131.18 190.75 130.5C190.75 129.588 190.355 128.714 189.652 128.069C188.948 127.425 187.995 127.062 187 127.062ZM189.974 130.156H189.25C189.219 129.491 189.038 128.839 188.718 128.242C189.061 128.462 189.351 128.747 189.567 129.077C189.784 129.407 189.922 129.774 189.974 130.156ZM186.625 127.853V130.156H185.5C185.598 128.994 186.089 128.135 186.625 127.853ZM186.625 130.844V133.147C186.089 132.865 185.598 132.006 185.5 130.844H186.625ZM187.375 133.147V130.844H188.5C188.403 132.006 187.911 132.865 187.375 133.147ZM187.375 130.156V127.853C187.911 128.135 188.403 128.994 188.5 130.156H187.375ZM185.294 128.242C184.97 128.838 184.785 129.49 184.75 130.156H184C184.056 129.771 184.2 129.402 184.423 129.072C184.646 128.742 184.943 128.459 185.294 128.242ZM184.026 130.844H184.776C184.807 131.509 184.989 132.161 185.309 132.758C184.96 132.54 184.665 132.257 184.444 131.927C184.223 131.597 184.081 131.228 184.026 130.844ZM188.706 132.758C189.03 132.162 189.215 131.51 189.25 130.844H190C189.944 131.229 189.8 131.598 189.577 131.928C189.354 132.258 189.057 132.541 188.706 132.758Z" fill="black"/>
</g>
<g clip-path="url(#clip3_3_48)">
<path d="M187.688 154H186.312L186.17 153.876C186 153.728 182 150.19 182 147C182 145.674 182.527 144.402 183.464 143.464C184.402 142.527 185.674 142 187 142C188.326 142 189.598 142.527 190.536 143.464C191.473 144.402 192 145.674 192 147C192 150.19 188 153.728 187.83 153.876L187.688 154ZM186.693 153H187.306C187.989 152.368 191 149.438 191 147C191 145.939 190.579 144.922 189.828 144.172C189.078 143.421 188.061 143 187 143C185.939 143 184.922 143.421 184.172 144.172C183.421 144.922 183 145.939 183 147C183 149.443 186.01 152.368 186.693 153Z" fill="black"/>
<path d="M187 149.5C186.506 149.5 186.022 149.353 185.611 149.079C185.2 148.804 184.88 148.414 184.69 147.957C184.501 147.5 184.452 146.997 184.548 146.512C184.645 146.027 184.883 145.582 185.232 145.232C185.582 144.883 186.027 144.645 186.512 144.548C186.997 144.452 187.5 144.501 187.957 144.69C188.414 144.88 188.804 145.2 189.079 145.611C189.353 146.022 189.5 146.506 189.5 147C189.499 147.663 189.236 148.298 188.767 148.767C188.298 149.236 187.663 149.499 187 149.5ZM187 145.5C186.703 145.5 186.413 145.588 186.167 145.753C185.92 145.918 185.728 146.152 185.614 146.426C185.501 146.7 185.471 147.002 185.529 147.293C185.587 147.584 185.73 147.851 185.939 148.061C186.149 148.27 186.416 148.413 186.707 148.471C186.998 148.529 187.3 148.499 187.574 148.386C187.848 148.272 188.082 148.08 188.247 147.833C188.412 147.587 188.5 147.297 188.5 147C188.5 146.602 188.342 146.221 188.061 145.939C187.779 145.658 187.398 145.5 187 145.5Z" fill="black"/>
<path d="M193 154H189.5V153H192V150H190.5V149H193V154Z" fill="black"/>
<path d="M184.5 154H181V149H183V150H182V153H184.5V154Z" fill="black"/>
</g>
<path d="M290.489 171V167.46C290.489 166.916 290.609 166.44 290.849 166.032C291.097 165.624 291.437 165.308 291.869 165.084C292.301 164.852 292.793 164.736 293.345 164.736C293.905 164.736 294.397 164.852 294.821 165.084C295.253 165.308 295.589 165.624 295.829 166.032C296.077 166.44 296.201 166.916 296.201 167.46V171H295.097V167.472C295.097 167.104 295.013 166.788 294.845 166.524C294.685 166.252 294.469 166.044 294.197 165.9C293.933 165.756 293.649 165.684 293.345 165.684C293.041 165.684 292.753 165.756 292.481 165.9C292.217 166.044 292.001 166.252 291.833 166.524C291.673 166.788 291.593 167.104 291.593 167.472V171H290.489Z" fill="#553F2E"/>
<path d="M285.276 171.144C284.684 171.144 284.172 171.004 283.74 170.724C283.308 170.436 282.976 170.048 282.744 169.56C282.512 169.072 282.396 168.532 282.396 167.94C282.396 167.34 282.524 166.8 282.78 166.32C283.036 165.832 283.404 165.448 283.884 165.168C284.364 164.88 284.94 164.736 285.612 164.736C286.26 164.736 286.816 164.876 287.28 165.156C287.744 165.436 288.1 165.816 288.348 166.296C288.604 166.776 288.732 167.312 288.732 167.904V171H287.616V169.752H287.592C287.472 169.984 287.308 170.208 287.1 170.424C286.9 170.632 286.648 170.804 286.344 170.94C286.04 171.076 285.684 171.144 285.276 171.144ZM285.564 170.196C285.964 170.196 286.316 170.1 286.62 169.908C286.932 169.708 287.172 169.436 287.34 169.092C287.516 168.74 287.604 168.348 287.604 167.916C287.604 167.492 287.52 167.112 287.352 166.776C287.192 166.44 286.96 166.176 286.656 165.984C286.352 165.784 285.996 165.684 285.588 165.684C285.156 165.684 284.784 165.784 284.472 165.984C284.168 166.184 283.932 166.456 283.764 166.8C283.604 167.136 283.524 167.52 283.524 167.952C283.524 168.368 283.604 168.748 283.764 169.092C283.924 169.428 284.156 169.696 284.46 169.896C284.764 170.096 285.132 170.196 285.564 170.196Z" fill="#553F2E"/>
<path d="M278.163 164.736C278.627 164.736 279.051 164.812 279.435 164.964C279.819 165.108 280.151 165.324 280.431 165.612C280.711 165.9 280.927 166.248 281.079 166.656C281.239 167.056 281.319 167.508 281.319 168.012C281.319 168.644 281.187 169.196 280.923 169.668C280.667 170.14 280.315 170.504 279.867 170.76C279.419 171.016 278.911 171.144 278.343 171.144C278.031 171.144 277.731 171.092 277.443 170.988C277.163 170.884 276.911 170.74 276.687 170.556C276.471 170.364 276.295 170.148 276.159 169.908H276.135V173.64H275.031V167.976C275.031 167.288 275.167 166.704 275.439 166.224C275.719 165.744 276.095 165.376 276.567 165.12C277.039 164.864 277.571 164.736 278.163 164.736ZM278.163 165.684C277.795 165.684 277.455 165.776 277.143 165.96C276.839 166.144 276.595 166.404 276.411 166.74C276.235 167.076 276.147 167.472 276.147 167.928C276.147 168.392 276.235 168.796 276.411 169.14C276.595 169.476 276.839 169.736 277.143 169.92C277.455 170.104 277.799 170.196 278.175 170.196C278.559 170.196 278.903 170.1 279.207 169.908C279.511 169.716 279.751 169.452 279.927 169.116C280.111 168.78 280.203 168.388 280.203 167.94C280.203 167.476 280.111 167.076 279.927 166.74C279.743 166.404 279.495 166.144 279.183 165.96C278.879 165.776 278.539 165.684 278.163 165.684Z" fill="#553F2E"/>
<path d="M270.436 171.144C269.812 171.144 269.26 171.004 268.78 170.724C268.3 170.436 267.92 170.052 267.64 169.572C267.36 169.084 267.22 168.54 267.22 167.94C267.22 167.34 267.36 166.8 267.64 166.32C267.92 165.832 268.3 165.448 268.78 165.168C269.26 164.88 269.812 164.736 270.436 164.736C271.06 164.736 271.612 164.88 272.092 165.168C272.58 165.448 272.96 165.828 273.232 166.308C273.512 166.788 273.652 167.332 273.652 167.94C273.652 168.54 273.512 169.084 273.232 169.572C272.96 170.052 272.58 170.436 272.092 170.724C271.612 171.004 271.06 171.144 270.436 171.144ZM270.436 170.196C270.86 170.196 271.228 170.096 271.54 169.896C271.852 169.696 272.096 169.428 272.272 169.092C272.448 168.748 272.536 168.364 272.536 167.94C272.536 167.516 272.448 167.136 272.272 166.8C272.096 166.456 271.852 166.184 271.54 165.984C271.228 165.784 270.86 165.684 270.436 165.684C270.02 165.684 269.652 165.784 269.332 165.984C269.02 166.184 268.776 166.456 268.6 166.8C268.424 167.136 268.336 167.516 268.336 167.94C268.336 168.364 268.424 168.748 268.6 169.092C268.776 169.428 269.02 169.696 269.332 169.896C269.652 170.096 270.02 170.196 270.436 170.196Z" fill="#553F2E"/>
<path d="M255.907 171V167.316C255.907 166.844 256.015 166.412 256.231 166.02C256.447 165.628 256.759 165.316 257.167 165.084C257.575 164.852 258.067 164.736 258.643 164.736C258.923 164.736 259.203 164.776 259.483 164.856C259.763 164.928 260.023 165.056 260.263 165.24C260.503 165.416 260.695 165.656 260.839 165.96H260.851C261.011 165.656 261.211 165.416 261.451 165.24C261.691 165.056 261.951 164.928 262.231 164.856C262.511 164.776 262.795 164.736 263.083 164.736C263.651 164.736 264.139 164.852 264.547 165.084C264.955 165.316 265.267 165.628 265.483 166.02C265.699 166.412 265.807 166.844 265.807 167.316V171H264.703V167.316C264.703 167.012 264.631 166.736 264.487 166.488C264.343 166.24 264.147 166.044 263.899 165.9C263.659 165.756 263.383 165.684 263.071 165.684C262.767 165.684 262.487 165.76 262.231 165.912C261.975 166.056 261.771 166.252 261.619 166.5C261.475 166.74 261.403 167.012 261.403 167.316V171H260.299V167.316C260.299 167.012 260.223 166.74 260.071 166.5C259.927 166.252 259.727 166.056 259.471 165.912C259.223 165.76 258.943 165.684 258.631 165.684C258.327 165.684 258.051 165.756 257.803 165.9C257.563 166.044 257.371 166.24 257.227 166.488C257.083 166.736 257.011 167.012 257.011 167.316V171H255.907Z" fill="#553F2E"/>
<path d="M253.048 171V162.24H254.152V171H253.048Z" fill="#553F2E"/>
<path d="M249.312 171C248.64 171 248.044 170.876 247.524 170.628C247.004 170.372 246.596 170.016 246.3 169.56C246.012 169.096 245.868 168.556 245.868 167.94C245.868 167.332 245.992 166.788 246.24 166.308C246.488 165.82 246.832 165.436 247.272 165.156C247.712 164.876 248.224 164.736 248.808 164.736C249.44 164.736 249.964 164.872 250.38 165.144C250.804 165.416 251.12 165.784 251.328 166.248C251.536 166.704 251.64 167.216 251.64 167.784C251.64 167.872 251.636 167.964 251.628 168.06C251.628 168.156 251.62 168.24 251.604 168.312H247.044C247.084 168.688 247.208 169.008 247.416 169.272C247.624 169.528 247.888 169.724 248.208 169.86C248.536 169.988 248.896 170.052 249.288 170.052H250.884V171H249.312ZM247.032 167.532H250.524C250.524 167.38 250.508 167.22 250.476 167.052C250.444 166.876 250.388 166.708 250.308 166.548C250.228 166.38 250.12 166.232 249.984 166.104C249.856 165.968 249.692 165.86 249.492 165.78C249.3 165.7 249.072 165.66 248.808 165.66C248.528 165.66 248.28 165.716 248.064 165.828C247.856 165.932 247.676 166.076 247.524 166.26C247.372 166.436 247.256 166.636 247.176 166.86C247.096 167.084 247.048 167.308 247.032 167.532Z" fill="#553F2E"/>
<path d="M237.885 171V162.6H242.445C242.869 162.6 243.241 162.696 243.561 162.888C243.881 163.072 244.133 163.324 244.317 163.644C244.501 163.964 244.593 164.328 244.593 164.736C244.593 165.016 244.533 165.288 244.413 165.552C244.301 165.808 244.141 166.032 243.933 166.224C243.725 166.416 243.477 166.56 243.189 166.656C243.517 166.736 243.801 166.88 244.041 167.088C244.281 167.296 244.469 167.544 244.605 167.832C244.749 168.12 244.821 168.432 244.821 168.768C244.821 169.184 244.725 169.56 244.533 169.896C244.341 170.232 244.073 170.5 243.729 170.7C243.393 170.9 242.989 171 242.517 171H237.885ZM239.037 169.98H242.253C242.549 169.98 242.801 169.916 243.009 169.788C243.217 169.652 243.377 169.48 243.489 169.272C243.609 169.056 243.669 168.828 243.669 168.588C243.669 168.34 243.609 168.116 243.489 167.916C243.369 167.708 243.201 167.54 242.985 167.412C242.769 167.276 242.513 167.208 242.217 167.208H239.037V169.98ZM239.037 166.236H242.049C242.329 166.236 242.573 166.176 242.781 166.056C242.997 165.928 243.161 165.764 243.273 165.564C243.393 165.356 243.453 165.14 243.453 164.916C243.453 164.684 243.397 164.472 243.285 164.28C243.173 164.08 243.017 163.92 242.817 163.8C242.617 163.68 242.385 163.62 242.121 163.62H239.037V166.236Z" fill="#553F2E"/>
<path d="M230.31 171V165.828H229.242V164.88H230.31V163.98C230.31 163.436 230.462 163.012 230.766 162.708C231.078 162.396 231.506 162.24 232.05 162.24H233.562V163.188H232.266C231.994 163.188 231.786 163.264 231.642 163.416C231.498 163.568 231.426 163.78 231.426 164.052V164.88H233.322V165.828H231.426V171H230.31Z" fill="#553F2E"/>
<path d="M225.319 171.144C224.695 171.144 224.143 171.004 223.663 170.724C223.183 170.436 222.803 170.052 222.523 169.572C222.243 169.084 222.103 168.54 222.103 167.94C222.103 167.34 222.243 166.8 222.523 166.32C222.803 165.832 223.183 165.448 223.663 165.168C224.143 164.88 224.695 164.736 225.319 164.736C225.943 164.736 226.495 164.88 226.975 165.168C227.463 165.448 227.843 165.828 228.115 166.308C228.395 166.788 228.535 167.332 228.535 167.94C228.535 168.54 228.395 169.084 228.115 169.572C227.843 170.052 227.463 170.436 226.975 170.724C226.495 171.004 225.943 171.144 225.319 171.144ZM225.319 170.196C225.743 170.196 226.111 170.096 226.423 169.896C226.735 169.696 226.979 169.428 227.155 169.092C227.331 168.748 227.419 168.364 227.419 167.94C227.419 167.516 227.331 167.136 227.155 166.8C226.979 166.456 226.735 166.184 226.423 165.984C226.111 165.784 225.743 165.684 225.319 165.684C224.903 165.684 224.535 165.784 224.215 165.984C223.903 166.184 223.659 166.456 223.483 166.8C223.307 167.136 223.219 167.516 223.219 167.94C223.219 168.364 223.307 168.748 223.483 169.092C223.659 169.428 223.903 169.696 224.215 169.896C224.535 170.096 224.903 170.196 225.319 170.196Z" fill="#553F2E"/>
<path d="M214.102 173.436V171.096C213.654 171.032 213.254 170.884 212.902 170.652C212.558 170.412 212.286 170.104 212.086 169.728C211.886 169.344 211.786 168.908 211.786 168.42V164.88H212.902V168.408C212.902 168.776 212.982 169.096 213.142 169.368C213.302 169.632 213.514 169.836 213.778 169.98C214.05 170.124 214.338 170.196 214.642 170.196C214.954 170.196 215.242 170.124 215.506 169.98C215.778 169.836 215.994 169.632 216.154 169.368C216.322 169.096 216.406 168.776 216.406 168.408V164.88H217.51V168.42C217.51 168.908 217.41 169.34 217.21 169.716C217.018 170.092 216.746 170.4 216.394 170.64C216.05 170.872 215.654 171.024 215.206 171.096V173.436H214.102Z" fill="#553F2E"/>
<path d="M208.987 171C208.443 171 208.015 170.844 207.703 170.532C207.399 170.22 207.247 169.796 207.247 169.26V163.344H208.351V169.188C208.351 169.452 208.423 169.664 208.567 169.824C208.719 169.976 208.927 170.052 209.191 170.052H210.427V171H208.987ZM206.191 165.828V164.88H210.451V165.828H206.191Z" fill="#553F2E"/>
<path d="M204.04 171V164.88H205.156V171H204.04ZM204.604 163.908C204.404 163.908 204.228 163.836 204.076 163.692C203.932 163.54 203.86 163.364 203.86 163.164C203.86 162.964 203.932 162.792 204.076 162.648C204.228 162.496 204.404 162.42 204.604 162.42C204.804 162.42 204.976 162.496 205.12 162.648C205.272 162.792 205.348 162.964 205.348 163.164C205.348 163.364 205.272 163.54 205.12 163.692C204.976 163.836 204.804 163.908 204.604 163.908Z" fill="#553F2E"/>
<path d="M201.656 171C201.016 171 200.432 170.892 199.904 170.676C199.376 170.452 198.92 170.148 198.536 169.764C198.16 169.38 197.868 168.936 197.66 168.432C197.46 167.92 197.36 167.376 197.36 166.8C197.36 166.224 197.46 165.684 197.66 165.18C197.868 164.668 198.16 164.22 198.536 163.836C198.92 163.452 199.376 163.152 199.904 162.936C200.432 162.712 201.016 162.6 201.656 162.6H202.736V163.62H201.692C201.236 163.62 200.816 163.7 200.432 163.86C200.048 164.02 199.712 164.244 199.424 164.532C199.144 164.82 198.924 165.156 198.764 165.54C198.604 165.924 198.524 166.344 198.524 166.8C198.524 167.248 198.604 167.668 198.764 168.06C198.924 168.444 199.144 168.78 199.424 169.068C199.712 169.356 200.048 169.58 200.432 169.74C200.816 169.9 201.236 169.98 201.692 169.98H202.736V171H201.656Z" fill="#553F2E"/>
<path d="M323.503 153.8L324.043 152.072C323.867 152.016 323.731 151.916 323.635 151.772C323.547 151.62 323.503 151.468 323.503 151.316C323.503 151.092 323.579 150.908 323.731 150.764C323.891 150.612 324.079 150.536 324.295 150.536C324.535 150.536 324.727 150.616 324.871 150.776C325.015 150.936 325.087 151.128 325.087 151.352C325.087 151.504 325.075 151.648 325.051 151.784C325.027 151.912 324.983 152.06 324.919 152.228L324.439 153.8H323.503Z" fill="#553F2E"/>
<path d="M320.187 152C319.515 152 318.919 151.876 318.399 151.628C317.879 151.372 317.471 151.016 317.175 150.56C316.887 150.096 316.743 149.556 316.743 148.94C316.743 148.332 316.867 147.788 317.115 147.308C317.363 146.82 317.707 146.436 318.147 146.156C318.587 145.876 319.099 145.736 319.683 145.736C320.315 145.736 320.839 145.872 321.255 146.144C321.679 146.416 321.995 146.784 322.203 147.248C322.411 147.704 322.515 148.216 322.515 148.784C322.515 148.872 322.511 148.964 322.503 149.06C322.503 149.156 322.495 149.24 322.479 149.312H317.919C317.959 149.688 318.083 150.008 318.291 150.272C318.499 150.528 318.763 150.724 319.083 150.86C319.411 150.988 319.771 151.052 320.163 151.052H321.759V152H320.187ZM317.907 148.532H321.399C321.399 148.38 321.383 148.22 321.351 148.052C321.319 147.876 321.263 147.708 321.183 147.548C321.103 147.38 320.995 147.232 320.859 147.104C320.731 146.968 320.567 146.86 320.367 146.78C320.175 146.7 319.947 146.66 319.683 146.66C319.403 146.66 319.155 146.716 318.939 146.828C318.731 146.932 318.551 147.076 318.399 147.26C318.247 147.436 318.131 147.636 318.051 147.86C317.971 148.084 317.923 148.308 317.907 148.532Z" fill="#553F2E"/>
<path d="M312.459 152.144C311.907 152.144 311.411 152.032 310.971 151.808C310.539 151.576 310.199 151.256 309.951 150.848C309.711 150.44 309.591 149.964 309.591 149.42V145.88H310.707V149.408C310.707 149.776 310.787 150.096 310.947 150.368C311.107 150.632 311.319 150.836 311.583 150.98C311.855 151.124 312.143 151.196 312.447 151.196C312.759 151.196 313.047 151.124 313.311 150.98C313.583 150.836 313.799 150.632 313.959 150.368C314.127 150.096 314.211 149.776 314.211 149.408V145.88H315.327V149.42C315.327 149.964 315.203 150.44 314.955 150.848C314.707 151.256 314.367 151.576 313.935 151.808C313.503 152.032 313.011 152.144 312.459 152.144Z" fill="#553F2E"/>
<path d="M302.126 152V148.46C302.126 147.916 302.246 147.44 302.486 147.032C302.734 146.624 303.074 146.308 303.506 146.084C303.938 145.852 304.43 145.736 304.982 145.736C305.542 145.736 306.034 145.852 306.458 146.084C306.89 146.308 307.226 146.624 307.466 147.032C307.714 147.44 307.838 147.916 307.838 148.46V152H306.734V148.472C306.734 148.104 306.65 147.788 306.482 147.524C306.322 147.252 306.106 147.044 305.834 146.9C305.57 146.756 305.286 146.684 304.982 146.684C304.678 146.684 304.39 146.756 304.118 146.9C303.854 147.044 303.638 147.252 303.47 147.524C303.31 147.788 303.23 148.104 303.23 148.472V152H302.126Z" fill="#553F2E"/>
<path d="M298.39 152C297.718 152 297.122 151.876 296.602 151.628C296.082 151.372 295.674 151.016 295.378 150.56C295.09 150.096 294.946 149.556 294.946 148.94C294.946 148.332 295.07 147.788 295.318 147.308C295.566 146.82 295.91 146.436 296.35 146.156C296.79 145.876 297.302 145.736 297.886 145.736C298.518 145.736 299.042 145.872 299.458 146.144C299.882 146.416 300.198 146.784 300.406 147.248C300.614 147.704 300.718 148.216 300.718 148.784C300.718 148.872 300.714 148.964 300.706 149.06C300.706 149.156 300.698 149.24 300.682 149.312H296.122C296.162 149.688 296.286 150.008 296.494 150.272C296.702 150.528 296.966 150.724 297.286 150.86C297.614 150.988 297.974 151.052 298.366 151.052H299.962V152H298.39ZM296.11 148.532H299.602C299.602 148.38 299.586 148.22 299.554 148.052C299.522 147.876 299.466 147.708 299.386 147.548C299.306 147.38 299.198 147.232 299.062 147.104C298.934 146.968 298.77 146.86 298.57 146.78C298.378 146.7 298.15 146.66 297.886 146.66C297.606 146.66 297.358 146.716 297.142 146.828C296.934 146.932 296.754 147.076 296.602 147.26C296.45 147.436 296.334 147.636 296.254 147.86C296.174 148.084 296.126 148.308 296.11 148.532Z" fill="#553F2E"/>
<path d="M291.171 152.144C290.899 152.144 290.651 152.068 290.427 151.916C290.211 151.756 290.051 151.532 289.947 151.244L287.955 145.88H289.167L290.943 150.836C290.975 150.916 291.011 150.972 291.051 151.004C291.091 151.036 291.135 151.052 291.183 151.052C291.239 151.052 291.283 151.036 291.315 151.004C291.355 150.972 291.391 150.916 291.423 150.836L293.211 145.88H294.399L292.407 151.244C292.295 151.532 292.131 151.756 291.915 151.916C291.699 152.068 291.451 152.144 291.171 152.144Z" fill="#553F2E"/>
<path d="M279.348 152L282.204 144.404C282.332 144.076 282.508 143.836 282.732 143.684C282.956 143.532 283.216 143.456 283.512 143.456C283.808 143.456 284.068 143.532 284.292 143.684C284.524 143.828 284.7 144.064 284.82 144.392L287.688 152H286.428L285.696 149.972H281.304L280.56 152H279.348ZM281.664 148.952H285.348L283.848 144.788C283.808 144.684 283.764 144.604 283.716 144.548C283.668 144.492 283.6 144.464 283.512 144.464C283.432 144.464 283.368 144.492 283.32 144.548C283.272 144.604 283.232 144.684 283.2 144.788L281.664 148.952Z" fill="#553F2E"/>
<path d="M272.544 152.144C272.08 152.144 271.656 152.072 271.272 151.928C270.888 151.776 270.556 151.556 270.276 151.268C269.996 150.98 269.776 150.636 269.616 150.236C269.464 149.828 269.388 149.372 269.388 148.868C269.388 148.228 269.516 147.676 269.772 147.212C270.036 146.74 270.392 146.376 270.84 146.12C271.296 145.864 271.804 145.736 272.364 145.736C272.676 145.736 272.972 145.788 273.252 145.892C273.54 145.996 273.796 146.14 274.02 146.324C274.244 146.508 274.42 146.724 274.548 146.972H274.572V143.24H275.676V148.904C275.676 149.584 275.536 150.168 275.256 150.656C274.984 151.136 274.612 151.504 274.14 151.76C273.676 152.016 273.144 152.144 272.544 152.144ZM272.544 151.196C272.92 151.196 273.26 151.104 273.564 150.92C273.868 150.736 274.108 150.476 274.284 150.14C274.468 149.804 274.56 149.408 274.56 148.952C274.56 148.488 274.468 148.088 274.284 147.752C274.108 147.408 273.868 147.144 273.564 146.96C273.26 146.776 272.916 146.684 272.532 146.684C272.156 146.684 271.812 146.78 271.5 146.972C271.196 147.164 270.952 147.428 270.768 147.764C270.592 148.1 270.504 148.492 270.504 148.94C270.504 149.404 270.596 149.804 270.78 150.14C270.964 150.476 271.208 150.736 271.512 150.92C271.824 151.104 272.168 151.196 272.544 151.196Z" fill="#553F2E"/>
<path d="M266.864 152V145.88H267.98V152H266.864ZM267.428 144.908C267.228 144.908 267.052 144.836 266.9 144.692C266.756 144.54 266.684 144.364 266.684 144.164C266.684 143.964 266.756 143.792 266.9 143.648C267.052 143.496 267.228 143.42 267.428 143.42C267.628 143.42 267.8 143.496 267.944 143.648C268.096 143.792 268.172 143.964 268.172 144.164C268.172 144.364 268.096 144.54 267.944 144.692C267.8 144.836 267.628 144.908 267.428 144.908Z" fill="#553F2E"/>
<path d="M262.844 152V147.62C262.844 147.076 262.996 146.652 263.3 146.348C263.612 146.036 264.04 145.88 264.584 145.88H265.844V146.828H264.788C264.524 146.828 264.316 146.904 264.164 147.056C264.02 147.208 263.948 147.42 263.948 147.692V152H262.844Z" fill="#553F2E"/>
<path d="M258.312 152.144C257.72 152.144 257.188 152.016 256.716 151.76C256.244 151.504 255.868 151.136 255.588 150.656C255.316 150.168 255.18 149.584 255.18 148.904V143.24H256.284V146.972H256.308C256.444 146.724 256.62 146.508 256.836 146.324C257.06 146.14 257.312 145.996 257.592 145.892C257.88 145.788 258.18 145.736 258.492 145.736C259.06 145.736 259.568 145.864 260.016 146.12C260.464 146.376 260.816 146.74 261.072 147.212C261.336 147.676 261.468 148.228 261.468 148.868C261.468 149.372 261.388 149.828 261.228 150.236C261.076 150.636 260.86 150.98 260.58 151.268C260.3 151.556 259.968 151.776 259.584 151.928C259.2 152.072 258.776 152.144 258.312 152.144ZM258.312 151.196C258.688 151.196 259.028 151.104 259.332 150.92C259.644 150.736 259.892 150.476 260.076 150.14C260.26 149.804 260.352 149.404 260.352 148.94C260.352 148.492 260.26 148.1 260.076 147.764C259.9 147.428 259.66 147.164 259.356 146.972C259.052 146.78 258.708 146.684 258.324 146.684C257.948 146.684 257.604 146.776 257.292 146.96C256.988 147.144 256.744 147.408 256.56 147.752C256.384 148.088 256.296 148.488 256.296 148.952C256.296 149.408 256.384 149.804 256.56 150.14C256.744 150.476 256.988 150.736 257.292 150.92C257.604 151.104 257.944 151.196 258.312 151.196Z" fill="#553F2E"/>
<path d="M248.464 154.436V153.488H251.464C251.76 153.488 251.988 153.4 252.148 153.224C252.316 153.048 252.4 152.816 252.4 152.528V150.848H252.376C252.224 151.08 252.04 151.288 251.824 151.472C251.608 151.656 251.36 151.804 251.08 151.916C250.8 152.02 250.484 152.072 250.132 152.072C249.556 152.072 249.048 151.94 248.608 151.676C248.168 151.404 247.824 151.032 247.576 150.56C247.328 150.08 247.204 149.532 247.204 148.916C247.204 148.316 247.328 147.776 247.576 147.296C247.824 146.816 248.18 146.436 248.644 146.156C249.116 145.876 249.684 145.736 250.348 145.736C250.988 145.736 251.544 145.872 252.016 146.144C252.488 146.416 252.852 146.796 253.108 147.284C253.372 147.764 253.504 148.328 253.504 148.976V152.6C253.504 153.16 253.34 153.604 253.012 153.932C252.684 154.268 252.236 154.436 251.668 154.436H248.464ZM250.336 151.124C250.744 151.124 251.1 151.028 251.404 150.836C251.716 150.644 251.956 150.384 252.124 150.056C252.3 149.72 252.388 149.344 252.388 148.928C252.388 148.504 252.304 148.124 252.136 147.788C251.968 147.452 251.732 147.188 251.428 146.996C251.124 146.796 250.76 146.696 250.336 146.696C249.92 146.696 249.56 146.796 249.256 146.996C248.96 147.188 248.728 147.456 248.56 147.8C248.4 148.136 248.32 148.516 248.32 148.94C248.32 149.34 248.4 149.708 248.56 150.044C248.728 150.372 248.96 150.636 249.256 150.836C249.56 151.028 249.92 151.124 250.336 151.124Z" fill="#553F2E"/>
<path d="M240.075 152V148.46C240.075 147.916 240.195 147.44 240.435 147.032C240.683 146.624 241.023 146.308 241.455 146.084C241.887 145.852 242.379 145.736 242.931 145.736C243.491 145.736 243.983 145.852 244.407 146.084C244.839 146.308 245.175 146.624 245.415 147.032C245.663 147.44 245.787 147.916 245.787 148.46V152H244.683V148.472C244.683 148.104 244.599 147.788 244.431 147.524C244.271 147.252 244.055 147.044 243.783 146.9C243.519 146.756 243.235 146.684 242.931 146.684C242.627 146.684 242.339 146.756 242.067 146.9C241.803 147.044 241.587 147.252 241.419 147.524C241.259 147.788 241.179 148.104 241.179 148.472V152H240.075Z" fill="#553F2E"/>
<path d="M237.216 152V145.88H238.332V152H237.216ZM237.78 144.908C237.58 144.908 237.404 144.836 237.252 144.692C237.108 144.54 237.036 144.364 237.036 144.164C237.036 143.964 237.108 143.792 237.252 143.648C237.404 143.496 237.58 143.42 237.78 143.42C237.98 143.42 238.152 143.496 238.296 143.648C238.448 143.792 238.524 143.964 238.524 144.164C238.524 144.364 238.448 144.54 238.296 144.692C238.152 144.836 237.98 144.908 237.78 144.908Z" fill="#553F2E"/>
<path d="M225.567 152V148.316C225.567 147.844 225.675 147.412 225.891 147.02C226.107 146.628 226.419 146.316 226.827 146.084C227.235 145.852 227.727 145.736 228.303 145.736C228.583 145.736 228.863 145.776 229.143 145.856C229.423 145.928 229.683 146.056 229.923 146.24C230.163 146.416 230.355 146.656 230.499 146.96H230.511C230.671 146.656 230.871 146.416 231.111 146.24C231.351 146.056 231.611 145.928 231.891 145.856C232.171 145.776 232.455 145.736 232.743 145.736C233.311 145.736 233.799 145.852 234.207 146.084C234.615 146.316 234.927 146.628 235.143 147.02C235.359 147.412 235.467 147.844 235.467 148.316V152H234.363V148.316C234.363 148.012 234.291 147.736 234.147 147.488C234.003 147.24 233.807 147.044 233.559 146.9C233.319 146.756 233.043 146.684 232.731 146.684C232.427 146.684 232.147 146.76 231.891 146.912C231.635 147.056 231.431 147.252 231.279 147.5C231.135 147.74 231.063 148.012 231.063 148.316V152H229.959V148.316C229.959 148.012 229.883 147.74 229.731 147.5C229.587 147.252 229.387 147.056 229.131 146.912C228.883 146.76 228.603 146.684 228.291 146.684C227.987 146.684 227.711 146.756 227.463 146.9C227.223 147.044 227.031 147.24 226.887 147.488C226.743 147.736 226.671 148.012 226.671 148.316V152H225.567Z" fill="#553F2E"/>
<path d="M213.919 152V148.316C213.919 147.844 214.027 147.412 214.243 147.02C214.459 146.628 214.771 146.316 215.179 146.084C215.587 145.852 216.079 145.736 216.655 145.736C216.935 145.736 217.215 145.776 217.495 145.856C217.775 145.928 218.035 146.056 218.275 146.24C218.515 146.416 218.707 146.656 218.851 146.96H218.863C219.023 146.656 219.223 146.416 219.463 146.24C219.703 146.056 219.963 145.928 220.243 145.856C220.523 145.776 220.807 145.736 221.095 145.736C221.663 145.736 222.151 145.852 222.559 146.084C222.967 146.316 223.279 146.628 223.495 147.02C223.711 147.412 223.819 147.844 223.819 148.316V152H222.715V148.316C222.715 148.012 222.643 147.736 222.499 147.488C222.355 147.24 222.159 147.044 221.911 146.9C221.671 146.756 221.395 146.684 221.083 146.684C220.779 146.684 220.499 146.76 220.243 146.912C219.987 147.056 219.783 147.252 219.631 147.5C219.487 147.74 219.415 148.012 219.415 148.316V152H218.311V148.316C218.311 148.012 218.235 147.74 218.083 147.5C217.939 147.252 217.739 147.056 217.483 146.912C217.235 146.76 216.955 146.684 216.643 146.684C216.339 146.684 216.063 146.756 215.815 146.9C215.575 147.044 215.383 147.24 215.239 147.488C215.095 147.736 215.023 148.012 215.023 148.316V152H213.919Z" fill="#553F2E"/>
<path d="M209.299 152.144C208.747 152.144 208.251 152.032 207.811 151.808C207.379 151.576 207.039 151.256 206.791 150.848C206.551 150.44 206.431 149.964 206.431 149.42V145.88H207.547V149.408C207.547 149.776 207.627 150.096 207.787 150.368C207.947 150.632 208.159 150.836 208.423 150.98C208.695 151.124 208.983 151.196 209.287 151.196C209.599 151.196 209.887 151.124 210.151 150.98C210.423 150.836 210.639 150.632 210.799 150.368C210.967 150.096 211.051 149.776 211.051 149.408V145.88H212.167V149.42C212.167 149.964 212.043 150.44 211.795 150.848C211.547 151.256 211.207 151.576 210.775 151.808C210.343 152.032 209.851 152.144 209.299 152.144Z" fill="#553F2E"/>
<path d="M197.912 152V143.6H199.064V147.212H203.492V143.6H204.644V152H203.492V148.232H199.064V152H197.912Z" fill="#553F2E"/>
<path d="M272.675 31.6014C272.595 31.3389 272.466 31.2864 272.225 31.2864H272V29.3954H273.399C274.075 29.3954 274.397 29.623 274.557 30.3059L275.764 35.26C275.876 35.7326 275.925 36.2052 275.925 36.2052H275.957C275.957 36.2052 276.021 35.7324 276.15 35.26L277.662 29.4307H279.463L280.991 35.26C281.12 35.7326 281.168 36.2052 281.168 36.2052H281.2C281.2 36.2052 281.249 35.7324 281.361 35.26L282.552 30.3059C282.712 29.6232 283.034 29.3954 283.709 29.3954H285.109V31.2864H284.884C284.642 31.2864 284.53 31.3389 284.433 31.6014L282.471 38.3237H280.171L278.771 33.2295C278.643 32.7567 278.578 32.2666 278.578 32.2666H278.546C278.546 32.2666 278.465 32.7567 278.337 33.2295L276.954 38.3237H274.638L272.675 31.6014Z" fill="#553F2E"/>
<path d="M286.667 31.6715C286.667 31.4086 286.538 31.2864 286.313 31.2864H285.67V29.3954H287.616C288.372 29.3954 288.694 29.7633 288.694 30.586V36.0652C288.694 36.3102 288.823 36.4503 289.048 36.4503H289.691V38.3234H287.745C286.989 38.3234 286.667 37.9734 286.667 37.1329V31.6715Z" fill="#553F2E"/>
<path d="M291.411 31.1638H290.398V29.3957H291.411V29.1331C291.411 26.2097 293.615 25.8247 294.757 25.8247C295.175 25.8247 295.449 25.8772 295.449 25.8772V27.7678C295.449 27.7678 295.272 27.7328 295.031 27.7328C294.451 27.7328 293.454 27.8904 293.454 29.1859V29.3959H295.208V31.1641H293.454V38.3239H291.411V31.1638Z" fill="#553F2E"/>
<path d="M297.603 40.1268C298.166 40.1268 298.665 39.759 298.954 38.9888L299.227 38.3062L296.493 31.6017C296.397 31.3391 296.284 31.2866 296.059 31.2866H295.818V29.3957H297.169C297.748 29.3957 298.037 29.6232 298.246 30.2359L299.855 34.7001C300.016 35.1552 300.144 35.8904 300.144 35.8904H300.177C300.177 35.8904 300.305 35.1555 300.45 34.7001L301.849 30.2359C302.042 29.6232 302.38 29.3957 302.943 29.3957H304.326V31.2866H304.085C303.844 31.2866 303.715 31.3391 303.619 31.6017L300.675 39.6717C300.096 41.2821 298.938 42 297.716 42C296.429 42 295.641 41.0898 295.641 41.0898L296.429 39.5142C296.429 39.5142 296.928 40.1268 297.603 40.1268Z" fill="#553F2E"/>
<path d="M285.372 25.8357L287.37 28.0101L289.368 25.8357C288.857 25.2783 288.15 24.9342 287.37 24.9342C286.589 24.9342 285.883 25.2783 285.372 25.8357Z" fill="#553F2E"/>
<path d="M281.378 21.4887L283.374 23.6602C284.396 22.5477 285.81 21.859 287.37 21.859C288.93 21.859 290.343 22.5477 291.366 23.6602L293.362 21.4887C291.827 19.8173 289.708 18.7831 287.37 18.7831C285.032 18.7831 282.913 19.8176 281.378 21.4887Z" fill="#553F2E"/>
<path d="M277.383 17.141L279.378 19.3107C281.423 17.0845 284.249 15.7084 287.37 15.7084C290.491 15.7084 293.317 17.0845 295.362 19.3107L297.357 17.141C294.798 14.3564 291.265 12.6317 287.37 12.6317C283.474 12.6317 279.942 14.3564 277.383 17.141Z" fill="#553F2E"/>
<path d="M287.37 9.6213C291.738 9.6213 295.721 11.4195 298.728 14.3724C298.86 13.8277 298.934 13.2579 298.934 12.6682C298.934 8.98541 296.191 6 292.807 6C290.442 6 288.391 7.46007 287.37 9.59655C286.349 7.46007 284.298 6 281.932 6C278.548 6 275.806 8.98541 275.806 12.6682C275.806 13.2579 275.88 13.828 276.012 14.3724C279.02 11.4195 283.002 9.6213 287.37 9.6213Z" fill="#B3CC1F"/>
<path d="M306.175 31.6714C306.175 31.4086 306.046 31.2864 305.821 31.2864H305.178V29.3954H307.06C307.783 29.3954 308.137 29.7633 308.137 30.3934V30.656C308.137 30.8485 308.121 31.0411 308.121 31.0411H308.153C308.539 30.1659 309.52 29.1854 310.807 29.1854C312.046 29.1854 312.85 29.8158 313.204 31.0236H313.236C313.67 30.0608 314.732 29.1854 316.035 29.1854C317.74 29.1854 318.721 30.2356 318.721 32.5814V36.0652C318.721 36.3102 318.85 36.4503 319.075 36.4503H319.702V38.3234H317.772C317 38.3234 316.678 37.9733 316.678 37.1329V33.0017C316.678 31.9863 316.501 31.2161 315.552 31.2161C314.539 31.2161 313.815 32.1438 313.59 33.2641C313.494 33.6141 313.461 33.982 313.461 34.4021V38.3234H311.418V33.0017C311.418 32.0388 311.29 31.2161 310.309 31.2161C309.279 31.2161 308.588 32.1438 308.33 33.2818C308.25 33.6319 308.202 33.9995 308.202 34.4021V38.3234H306.175V31.6714Z" fill="#B3CC1F"/>
<path d="M324.365 29.1856C326.713 29.1856 328 31.0588 328 33.4221C328 33.6846 327.952 34.2448 327.952 34.2448H322.29C322.451 35.8204 323.512 36.6431 324.751 36.6431C326.07 36.6431 327.051 35.6453 327.051 35.6453L327.903 37.1857C327.903 37.1857 326.649 38.5337 324.606 38.5337C321.888 38.5337 320.199 36.398 320.199 33.8599C320.199 31.1113 321.904 29.1856 324.365 29.1856ZM325.909 32.7042C325.877 31.6362 325.202 30.901 324.365 30.901C323.32 30.901 322.58 31.5837 322.355 32.7042H325.909Z" fill="#B3CC1F"/>
</g>
<defs>
<clipPath id="clip0_3_48">
<rect width="336" height="192" fill="white"/>
</clipPath>
<clipPath id="clip1_3_48">
<rect width="11" height="12" fill="white" transform="translate(182 104)"/>
</clipPath>
<clipPath id="clip2_3_48">
<rect width="12" height="11" fill="white" transform="translate(181 125)"/>
</clipPath>
<clipPath id="clip3_3_48">
<rect width="12" height="12" fill="white" transform="translate(181 142)"/>
</clipPath>
</defs>
</svg>
