<svg width="336" height="192" viewBox="0 0 336 192" fill="none" xmlns="http://www.w3.org/2000/svg">
<g clip-path="url(#clip0_1_4)">
<rect width="336" height="192" fill="#F7ECDF"/>
<path d="M111.459 111.759C111.285 111.197 111.008 111.085 110.486 111.085H110V107.04H113.024C114.483 107.04 115.178 107.527 115.526 108.988L118.132 119.584C118.376 120.595 118.48 121.606 118.48 121.606H118.549C118.549 121.606 118.688 120.594 118.966 119.584L122.233 107.116H126.126L129.427 119.584C129.706 120.595 129.81 121.606 129.81 121.606H129.879C129.879 121.606 129.984 120.594 130.227 119.584L132.799 108.988C133.146 107.528 133.841 107.04 135.301 107.04H138.324V111.085H137.838C137.317 111.085 137.074 111.197 136.865 111.759L132.625 126.137H127.654L124.631 115.241C124.353 114.23 124.214 113.181 124.214 113.181H124.144C124.144 113.181 123.97 114.23 123.692 115.241L120.703 126.137H115.699L111.459 111.759Z" fill="#553F2E"/>
<path d="M141.692 111.908C141.692 111.346 141.413 111.085 140.927 111.085H139.537V107.04H143.742C145.376 107.04 146.07 107.827 146.07 109.587V121.306C146.07 121.83 146.349 122.13 146.835 122.13H148.225V126.136H144.02C142.387 126.136 141.692 125.387 141.692 123.59V111.908Z" fill="#553F2E"/>
<path d="M151.942 110.823H149.753V107.041H151.942V106.479C151.942 100.226 156.704 99.4027 159.171 99.4027C160.075 99.4027 160.666 99.515 160.666 99.515V103.559C160.666 103.559 160.283 103.484 159.763 103.484C158.511 103.484 156.357 103.821 156.357 106.592V107.041H160.145V110.823H156.356V126.137H151.942V110.823Z" fill="#553F2E"/>
<path d="M165.321 129.994C166.537 129.994 167.615 129.207 168.24 127.559L168.831 126.099L162.923 111.759C162.714 111.198 162.471 111.085 161.985 111.085H161.463V107.041H164.382C165.634 107.041 166.259 107.527 166.711 108.838L170.186 118.386C170.534 119.36 170.812 120.932 170.812 120.932H170.882C170.882 120.932 171.16 119.36 171.472 118.386L174.495 108.838C174.912 107.527 175.643 107.041 176.859 107.041H179.848V111.085H179.327C178.805 111.085 178.527 111.198 178.319 111.759L171.959 129.02C170.707 132.464 168.205 134 165.564 134C162.783 134 161.081 132.053 161.081 132.053L162.784 128.683C162.784 128.683 163.862 129.994 165.321 129.994Z" fill="#553F2E"/>
<path d="M138.892 99.4263L143.209 104.077L147.527 99.4263C146.422 98.2341 144.896 97.4982 143.209 97.4982C141.523 97.4982 139.997 98.2341 138.892 99.4263Z" fill="#553F2E"/>
<path d="M130.263 90.1286L134.576 94.7731C136.785 92.3936 139.839 90.9207 143.21 90.9207C146.582 90.9207 149.635 92.3936 151.845 94.7731L156.158 90.1286C152.84 86.5537 148.262 84.3416 143.21 84.3416C138.159 84.3416 133.58 86.5542 130.263 90.1286Z" fill="#553F2E"/>
<path d="M121.631 80.8293L125.941 85.4701C130.36 80.7084 136.466 77.7652 143.21 77.7652C149.954 77.7652 156.06 80.7084 160.479 85.4701L164.788 80.8293C159.26 74.8733 151.627 71.1845 143.209 71.1845C134.793 71.1845 127.16 74.8733 121.631 80.8293Z" fill="#553F2E"/>
<path d="M143.209 64.7456C152.648 64.7456 161.253 68.5916 167.751 74.9075C168.036 73.7427 168.196 72.5238 168.196 71.2626C168.196 63.3855 162.27 57 154.959 57C149.847 57 145.416 60.1229 143.209 64.6926C141.004 60.1229 136.573 57 131.461 57C124.149 57 118.223 63.3855 118.223 71.2626C118.223 72.5238 118.384 73.7432 118.669 74.9075C125.167 68.5916 133.772 64.7456 143.209 64.7456Z" fill="#B3CC1F"/>
<path d="M183.843 111.908C183.843 111.346 183.565 111.085 183.078 111.085H181.688V107.04H185.754C187.318 107.04 188.082 107.827 188.082 109.175V109.736C188.082 110.148 188.047 110.56 188.047 110.56H188.117C188.951 108.688 191.071 106.591 193.852 106.591C196.528 106.591 198.265 107.939 199.03 110.523H199.1C200.038 108.463 202.332 106.591 205.147 106.591C208.831 106.591 210.95 108.837 210.95 113.855V121.306C210.95 121.83 211.229 122.13 211.715 122.13H213.07V126.136H208.9C207.232 126.136 206.537 125.387 206.537 123.59V114.754C206.537 112.582 206.154 110.934 204.104 110.934C201.915 110.934 200.351 112.919 199.864 115.315C199.656 116.064 199.586 116.85 199.586 117.749V126.136H195.172V114.754C195.172 112.694 194.894 110.934 192.774 110.934C190.55 110.934 189.056 112.919 188.5 115.353C188.326 116.102 188.222 116.888 188.222 117.749V126.136H183.843V111.908Z" fill="#B3CC1F"/>
<path d="M223.146 106.592C228.22 106.592 231 110.598 231 115.653C231 116.214 230.896 117.412 230.896 117.412H218.662C219.01 120.782 221.304 122.542 223.98 122.542C226.83 122.542 228.95 120.408 228.95 120.408L230.791 123.703C230.791 123.703 228.081 126.586 223.667 126.586C217.794 126.586 214.144 122.018 214.144 116.589C214.145 110.71 217.829 106.592 223.146 106.592ZM226.483 114.117C226.413 111.833 224.954 110.261 223.146 110.261C220.887 110.261 219.288 111.721 218.802 114.117H226.483Z" fill="#B3CC1F"/>
<rect width="336" height="5" fill="#B3CC1F"/>
<rect y="187" width="336" height="5" fill="#B3CC1F"/>
<rect width="336" height="5" fill="#B3CC1F"/>
<rect x="-3.7409" y="190.718" width="190.708" height="7.80797" transform="rotate(-90.0778 -3.7409 190.718)" fill="#B3CC1F"/>
<rect x="331.263" y="190.858" width="193.845" height="9.63206" transform="rotate(-90.0778 331.263 190.858)" fill="#B3CC1F"/>
</g>
<defs>
<clipPath id="clip0_1_4">
<rect width="336" height="192" fill="white"/>
</clipPath>
</defs>
</svg>
