<svg width="912" height="396" viewBox="0 0 912 396" fill="none" xmlns="http://www.w3.org/2000/svg">
<g clip-path="url(#clip0_4_310)">
<rect width="912" height="396" fill="#F7ECDF"/>
<rect width="912" height="5" fill="#B3CC1F"/>
<rect width="393.334" height="5" transform="matrix(-0.00178794 -0.999998 1 -0.00103236 -0.358276 391.284)" fill="#B3CC1F"/>
<rect width="399.805" height="5" transform="matrix(-0.00178794 -0.999998 1 -0.00103236 906.715 395.809)" fill="#B3CC1F"/>
<path d="M803.59 368C802.918 368 802.322 367.876 801.802 367.628C801.282 367.372 800.874 367.016 800.578 366.56C800.29 366.096 800.146 365.556 800.146 364.94C800.146 364.332 800.27 363.788 800.518 363.308C800.766 362.82 801.11 362.436 801.55 362.156C801.99 361.876 802.502 361.736 803.086 361.736C803.718 361.736 804.242 361.872 804.658 362.144C805.082 362.416 805.398 362.784 805.606 363.248C805.814 363.704 805.918 364.216 805.918 364.784C805.918 364.872 805.914 364.964 805.906 365.06C805.906 365.156 805.898 365.24 805.882 365.312H801.322C801.362 365.688 801.486 366.008 801.694 366.272C801.902 366.528 802.166 366.724 802.486 366.86C802.814 366.988 803.174 367.052 803.566 367.052H805.162V368H803.59ZM801.31 364.532H804.802C804.802 364.38 804.786 364.22 804.754 364.052C804.722 363.876 804.666 363.708 804.586 363.548C804.506 363.38 804.398 363.232 804.262 363.104C804.134 362.968 803.97 362.86 803.77 362.78C803.578 362.7 803.35 362.66 803.086 362.66C802.806 362.66 802.558 362.716 802.342 362.828C802.134 362.932 801.954 363.076 801.802 363.26C801.65 363.436 801.534 363.636 801.454 363.86C801.374 364.084 801.326 364.308 801.31 364.532Z" fill="#553F2E"/>
<path d="M788.833 368V364.316C788.833 363.844 788.941 363.412 789.157 363.02C789.373 362.628 789.685 362.316 790.093 362.084C790.501 361.852 790.993 361.736 791.569 361.736C791.849 361.736 792.129 361.776 792.409 361.856C792.689 361.928 792.949 362.056 793.189 362.24C793.429 362.416 793.621 362.656 793.765 362.96H793.777C793.937 362.656 794.137 362.416 794.377 362.24C794.617 362.056 794.877 361.928 795.157 361.856C795.437 361.776 795.721 361.736 796.009 361.736C796.577 361.736 797.065 361.852 797.473 362.084C797.881 362.316 798.193 362.628 798.409 363.02C798.625 363.412 798.733 363.844 798.733 364.316V368H797.629V364.316C797.629 364.012 797.557 363.736 797.413 363.488C797.269 363.24 797.073 363.044 796.825 362.9C796.585 362.756 796.309 362.684 795.997 362.684C795.693 362.684 795.413 362.76 795.157 362.912C794.901 363.056 794.697 363.252 794.545 363.5C794.401 363.74 794.329 364.012 794.329 364.316V368H793.225V364.316C793.225 364.012 793.149 363.74 792.997 363.5C792.853 363.252 792.653 363.056 792.397 362.912C792.149 362.76 791.869 362.684 791.557 362.684C791.253 362.684 790.977 362.756 790.729 362.9C790.489 363.044 790.297 363.24 790.153 363.488C790.009 363.736 789.937 364.012 789.937 364.316V368H788.833Z" fill="#553F2E"/>
<path d="M786.709 368.12C786.493 368.12 786.305 368.044 786.145 367.892C785.993 367.732 785.917 367.544 785.917 367.328C785.917 367.112 785.993 366.928 786.145 366.776C786.305 366.616 786.493 366.536 786.709 366.536C786.925 366.536 787.109 366.616 787.261 366.776C787.421 366.928 787.501 367.112 787.501 367.328C787.501 367.472 787.465 367.604 787.393 367.724C787.329 367.844 787.237 367.94 787.117 368.012C786.997 368.084 786.861 368.12 786.709 368.12Z" fill="#553F2E"/>
<path d="M781.176 370.436V368.096C780.728 368.032 780.328 367.884 779.976 367.652C779.632 367.412 779.36 367.104 779.16 366.728C778.96 366.344 778.86 365.908 778.86 365.42V361.88H779.976V365.408C779.976 365.776 780.056 366.096 780.216 366.368C780.376 366.632 780.588 366.836 780.852 366.98C781.124 367.124 781.412 367.196 781.716 367.196C782.028 367.196 782.316 367.124 782.58 366.98C782.852 366.836 783.068 366.632 783.228 366.368C783.396 366.096 783.48 365.776 783.48 365.408V361.88H784.584V365.42C784.584 365.908 784.484 366.34 784.284 366.716C784.092 367.092 783.82 367.4 783.468 367.64C783.124 367.872 782.728 368.024 782.28 368.096V370.436H781.176Z" fill="#553F2E"/>
<path d="M774.861 368V362.828H773.793V361.88H774.861V360.98C774.861 360.436 775.013 360.012 775.317 359.708C775.629 359.396 776.057 359.24 776.601 359.24H778.113V360.188H776.817C776.545 360.188 776.337 360.264 776.193 360.416C776.049 360.568 775.977 360.78 775.977 361.052V361.88H777.873V362.828H775.977V368H774.861Z" fill="#553F2E"/>
<path d="M771.642 368V361.88H772.758V368H771.642ZM772.206 360.908C772.006 360.908 771.83 360.836 771.678 360.692C771.534 360.54 771.462 360.364 771.462 360.164C771.462 359.964 771.534 359.792 771.678 359.648C771.83 359.496 772.006 359.42 772.206 359.42C772.406 359.42 772.578 359.496 772.722 359.648C772.874 359.792 772.95 359.964 772.95 360.164C772.95 360.364 772.874 360.54 772.722 360.692C772.578 360.836 772.406 360.908 772.206 360.908Z" fill="#553F2E"/>
<path d="M761.928 368.144C761.544 368.144 761.196 368.072 760.884 367.928C760.58 367.776 760.336 367.544 760.152 367.232C759.968 366.912 759.876 366.504 759.876 366.008V361.88H760.98V366.2C760.98 366.416 761.024 366.6 761.112 366.752C761.2 366.904 761.316 367.016 761.46 367.088C761.604 367.16 761.756 367.196 761.916 367.196C762.076 367.196 762.228 367.16 762.372 367.088C762.516 367.008 762.632 366.896 762.72 366.752C762.816 366.6 762.864 366.416 762.864 366.2V363.824C762.864 363.352 762.952 362.964 763.128 362.66C763.304 362.348 763.544 362.116 763.848 361.964C764.152 361.812 764.496 361.736 764.88 361.736C765.264 361.736 765.608 361.812 765.912 361.964C766.216 362.116 766.456 362.348 766.632 362.66C766.808 362.964 766.896 363.352 766.896 363.824V366.2C766.896 366.416 766.94 366.6 767.028 366.752C767.116 366.896 767.232 367.008 767.376 367.088C767.52 367.16 767.676 367.196 767.844 367.196C768.012 367.196 768.164 367.16 768.3 367.088C768.436 367.008 768.548 366.896 768.636 366.752C768.724 366.6 768.768 366.416 768.768 366.2V361.88H769.884V366.008C769.884 366.504 769.792 366.912 769.608 367.232C769.424 367.544 769.176 367.776 768.864 367.928C768.56 368.072 768.22 368.144 767.844 368.144C767.476 368.144 767.136 368.072 766.824 367.928C766.512 367.776 766.26 367.544 766.068 367.232C765.884 366.912 765.792 366.504 765.792 366.008V363.656C765.792 363.432 765.748 363.248 765.66 363.104C765.572 362.96 765.46 362.856 765.324 362.792C765.188 362.72 765.04 362.684 764.88 362.684C764.72 362.684 764.568 362.72 764.424 362.792C764.288 362.856 764.176 362.96 764.088 363.104C764.008 363.248 763.968 363.432 763.968 363.656V366.008C763.968 366.504 763.872 366.912 763.68 367.232C763.496 367.544 763.248 367.776 762.936 367.928C762.632 368.072 762.296 368.144 761.928 368.144Z" fill="#553F2E"/>
<g clip-path="url(#clip1_4_310)">
<path d="M748.83 359.029C748.658 357.97 748.003 356.985 746.972 356.231C745.94 355.477 744.591 354.999 743.142 354.873C739.078 354.522 734.971 354.522 730.906 354.873C729.457 354.999 728.109 355.477 727.077 356.231C726.045 356.985 725.391 357.97 725.219 359.029C724.739 361.999 724.739 365.001 725.219 367.971C725.391 369.03 726.045 370.015 727.077 370.769C728.109 371.523 729.457 372.001 730.906 372.127C734.971 372.477 739.078 372.477 743.142 372.127C744.591 372.001 745.94 371.523 746.972 370.769C748.003 370.015 748.658 369.03 748.83 367.971C749.309 365.001 749.309 361.999 748.83 359.029ZM747.205 367.834C747.08 368.634 746.588 369.38 745.809 369.949C745.03 370.518 744.01 370.878 742.915 370.969C738.974 371.302 734.993 371.302 731.052 370.969C729.961 370.875 728.944 370.515 728.169 369.946C727.393 369.376 726.903 368.633 726.779 367.834C726.324 364.954 726.324 362.046 726.779 359.166C726.904 358.366 727.396 357.62 728.175 357.051C728.954 356.482 729.974 356.122 731.069 356.031C735.01 355.698 738.99 355.698 742.931 356.031C744.026 356.122 745.046 356.482 745.825 357.051C746.604 357.62 747.096 358.366 747.221 359.166C747.676 362.046 747.676 364.954 747.221 367.834H747.205Z" fill="black"/>
<path d="M737 357.562C735.393 357.562 733.822 357.911 732.486 358.563C731.15 359.216 730.108 360.143 729.493 361.228C728.879 362.313 728.718 363.507 729.031 364.658C729.345 365.81 730.118 366.868 731.255 367.698C732.391 368.529 733.839 369.094 735.415 369.323C736.991 369.553 738.625 369.435 740.109 368.986C741.594 368.536 742.863 367.775 743.756 366.799C744.648 365.822 745.125 364.674 745.125 363.5C745.125 361.925 744.269 360.415 742.745 359.302C741.222 358.188 739.155 357.562 737 357.562ZM743.443 362.906H741.875C741.808 361.757 741.415 360.631 740.721 359.599C741.466 359.98 742.094 360.472 742.563 361.042C743.031 361.611 743.331 362.246 743.443 362.906ZM736.188 358.928V362.906H733.75C733.961 360.899 735.026 359.415 736.188 358.928ZM736.188 364.094V368.072C735.026 367.585 733.961 366.101 733.75 364.094H736.188ZM737.813 368.072V364.094H740.25C740.039 366.101 738.974 367.585 737.813 368.072ZM737.813 362.906V358.928C738.974 359.415 740.039 360.899 740.25 362.906H737.813ZM733.303 359.599C732.601 360.63 732.2 361.756 732.125 362.906H730.5C730.621 362.242 730.934 361.603 731.417 361.033C731.9 360.463 732.543 359.975 733.303 359.599ZM730.557 364.094H732.182C732.249 365.243 732.642 366.369 733.336 367.401C732.58 367.024 731.942 366.534 731.463 365.964C730.984 365.394 730.675 364.757 730.557 364.094ZM740.697 367.401C741.399 366.37 741.8 365.244 741.875 364.094H743.5C743.379 364.758 743.066 365.397 742.583 365.967C742.1 366.537 741.457 367.025 740.697 367.401Z" fill="black"/>
</g>
<g clip-path="url(#clip2_4_310)">
<path d="M62.048 373H58.952L58.6336 372.793C58.25 372.546 49.25 366.65 49.25 361.333C49.25 359.123 50.4353 357.004 52.545 355.441C54.6548 353.878 57.5163 353 60.5 353C63.4837 353 66.3452 353.878 68.455 355.441C70.5647 357.004 71.75 359.123 71.75 361.333C71.75 366.65 62.75 372.546 62.3664 372.793L62.048 373ZM59.8092 371.333H61.1896C62.7264 370.279 69.5 365.397 69.5 361.333C69.5 359.565 68.5518 357.87 66.864 356.619C65.1761 355.369 62.8869 354.667 60.5 354.667C58.1131 354.667 55.8239 355.369 54.136 356.619C52.4482 357.87 51.5 359.565 51.5 361.333C51.5 365.405 58.2736 370.281 59.8092 371.333Z" fill="black"/>
<path d="M60.5 365.5C59.3875 365.5 58.2999 365.256 57.3749 364.798C56.4499 364.34 55.7289 363.689 55.3032 362.928C54.8774 362.166 54.766 361.329 54.9831 360.52C55.2001 359.712 55.7359 358.97 56.5225 358.387C57.3092 357.804 58.3115 357.407 59.4026 357.247C60.4938 357.086 61.6248 357.168 62.6526 357.484C63.6804 357.799 64.5589 358.333 65.177 359.018C65.7951 359.704 66.125 360.509 66.125 361.333C66.1232 362.438 65.53 363.497 64.4755 364.278C63.421 365.059 61.9913 365.499 60.5 365.5ZM60.5 358.833C59.8325 358.833 59.18 358.98 58.625 359.255C58.0699 359.529 57.6374 359.92 57.3819 360.377C57.1265 360.833 57.0596 361.336 57.1899 361.821C57.3201 362.306 57.6415 362.751 58.1135 363.101C58.5855 363.451 59.1869 363.689 59.8416 363.785C60.4963 363.882 61.1749 363.832 61.7916 363.643C62.4083 363.454 62.9354 363.133 63.3062 362.722C63.6771 362.311 63.875 361.828 63.875 361.333C63.875 360.67 63.5194 360.034 62.8865 359.566C62.2536 359.097 61.3951 358.833 60.5 358.833Z" fill="black"/>
<path d="M74 373H66.125V371.333H71.75V366.333H68.375V364.667H74V373Z" fill="black"/>
<path d="M54.875 373H47V364.667H51.5V366.333H49.25V371.333H54.875V373Z" fill="black"/>
</g>
<path d="M316.208 368V364.46C316.208 363.916 316.328 363.44 316.568 363.032C316.816 362.624 317.156 362.308 317.588 362.084C318.02 361.852 318.512 361.736 319.064 361.736C319.624 361.736 320.116 361.852 320.54 362.084C320.972 362.308 321.308 362.624 321.548 363.032C321.796 363.44 321.92 363.916 321.92 364.46V368H320.816V364.472C320.816 364.104 320.732 363.788 320.564 363.524C320.404 363.252 320.188 363.044 319.916 362.9C319.652 362.756 319.368 362.684 319.064 362.684C318.76 362.684 318.472 362.756 318.2 362.9C317.936 363.044 317.72 363.252 317.552 363.524C317.392 363.788 317.312 364.104 317.312 364.472V368H316.208Z" fill="#553F2E"/>
<path d="M310.994 368.144C310.402 368.144 309.89 368.004 309.458 367.724C309.026 367.436 308.694 367.048 308.462 366.56C308.23 366.072 308.114 365.532 308.114 364.94C308.114 364.34 308.242 363.8 308.498 363.32C308.754 362.832 309.122 362.448 309.602 362.168C310.082 361.88 310.658 361.736 311.33 361.736C311.978 361.736 312.534 361.876 312.998 362.156C313.462 362.436 313.818 362.816 314.066 363.296C314.322 363.776 314.45 364.312 314.45 364.904V368H313.334V366.752H313.31C313.19 366.984 313.026 367.208 312.818 367.424C312.618 367.632 312.366 367.804 312.062 367.94C311.758 368.076 311.402 368.144 310.994 368.144ZM311.282 367.196C311.682 367.196 312.034 367.1 312.338 366.908C312.65 366.708 312.89 366.436 313.058 366.092C313.234 365.74 313.322 365.348 313.322 364.916C313.322 364.492 313.238 364.112 313.07 363.776C312.91 363.44 312.678 363.176 312.374 362.984C312.07 362.784 311.714 362.684 311.306 362.684C310.874 362.684 310.502 362.784 310.19 362.984C309.886 363.184 309.65 363.456 309.482 363.8C309.322 364.136 309.242 364.52 309.242 364.952C309.242 365.368 309.322 365.748 309.482 366.092C309.642 366.428 309.874 366.696 310.178 366.896C310.482 367.096 310.85 367.196 311.282 367.196Z" fill="#553F2E"/>
<path d="M303.882 361.736C304.346 361.736 304.77 361.812 305.154 361.964C305.538 362.108 305.87 362.324 306.15 362.612C306.43 362.9 306.646 363.248 306.798 363.656C306.958 364.056 307.038 364.508 307.038 365.012C307.038 365.644 306.906 366.196 306.642 366.668C306.386 367.14 306.034 367.504 305.586 367.76C305.138 368.016 304.63 368.144 304.062 368.144C303.75 368.144 303.45 368.092 303.162 367.988C302.882 367.884 302.63 367.74 302.406 367.556C302.19 367.364 302.014 367.148 301.878 366.908H301.854V370.64H300.75V364.976C300.75 364.288 300.886 363.704 301.158 363.224C301.438 362.744 301.814 362.376 302.286 362.12C302.758 361.864 303.29 361.736 303.882 361.736ZM303.882 362.684C303.514 362.684 303.174 362.776 302.862 362.96C302.558 363.144 302.314 363.404 302.13 363.74C301.954 364.076 301.866 364.472 301.866 364.928C301.866 365.392 301.954 365.796 302.13 366.14C302.314 366.476 302.558 366.736 302.862 366.92C303.174 367.104 303.518 367.196 303.894 367.196C304.278 367.196 304.622 367.1 304.926 366.908C305.23 366.716 305.47 366.452 305.646 366.116C305.83 365.78 305.922 365.388 305.922 364.94C305.922 364.476 305.83 364.076 305.646 363.74C305.462 363.404 305.214 363.144 304.902 362.96C304.598 362.776 304.258 362.684 303.882 362.684Z" fill="#553F2E"/>
<path d="M296.154 368.144C295.53 368.144 294.978 368.004 294.498 367.724C294.018 367.436 293.638 367.052 293.358 366.572C293.078 366.084 292.938 365.54 292.938 364.94C292.938 364.34 293.078 363.8 293.358 363.32C293.638 362.832 294.018 362.448 294.498 362.168C294.978 361.88 295.53 361.736 296.154 361.736C296.778 361.736 297.33 361.88 297.81 362.168C298.298 362.448 298.678 362.828 298.95 363.308C299.23 363.788 299.37 364.332 299.37 364.94C299.37 365.54 299.23 366.084 298.95 366.572C298.678 367.052 298.298 367.436 297.81 367.724C297.33 368.004 296.778 368.144 296.154 368.144ZM296.154 367.196C296.578 367.196 296.946 367.096 297.258 366.896C297.57 366.696 297.814 366.428 297.99 366.092C298.166 365.748 298.254 365.364 298.254 364.94C298.254 364.516 298.166 364.136 297.99 363.8C297.814 363.456 297.57 363.184 297.258 362.984C296.946 362.784 296.578 362.684 296.154 362.684C295.738 362.684 295.37 362.784 295.05 362.984C294.738 363.184 294.494 363.456 294.318 363.8C294.142 364.136 294.054 364.516 294.054 364.94C294.054 365.364 294.142 365.748 294.318 366.092C294.494 366.428 294.738 366.696 295.05 366.896C295.37 367.096 295.738 367.196 296.154 367.196Z" fill="#553F2E"/>
<path d="M281.626 368V364.316C281.626 363.844 281.734 363.412 281.95 363.02C282.166 362.628 282.478 362.316 282.886 362.084C283.294 361.852 283.786 361.736 284.362 361.736C284.642 361.736 284.922 361.776 285.202 361.856C285.482 361.928 285.742 362.056 285.982 362.24C286.222 362.416 286.414 362.656 286.558 362.96H286.57C286.73 362.656 286.93 362.416 287.17 362.24C287.41 362.056 287.67 361.928 287.95 361.856C288.23 361.776 288.514 361.736 288.802 361.736C289.37 361.736 289.858 361.852 290.266 362.084C290.674 362.316 290.986 362.628 291.202 363.02C291.418 363.412 291.526 363.844 291.526 364.316V368H290.422V364.316C290.422 364.012 290.35 363.736 290.206 363.488C290.062 363.24 289.866 363.044 289.618 362.9C289.378 362.756 289.102 362.684 288.79 362.684C288.486 362.684 288.206 362.76 287.95 362.912C287.694 363.056 287.49 363.252 287.338 363.5C287.194 363.74 287.122 364.012 287.122 364.316V368H286.018V364.316C286.018 364.012 285.942 363.74 285.79 363.5C285.646 363.252 285.446 363.056 285.19 362.912C284.942 362.76 284.662 362.684 284.35 362.684C284.046 362.684 283.77 362.756 283.522 362.9C283.282 363.044 283.09 363.24 282.946 363.488C282.802 363.736 282.73 364.012 282.73 364.316V368H281.626Z" fill="#553F2E"/>
<path d="M278.767 368V359.24H279.871V368H278.767Z" fill="#553F2E"/>
<path d="M275.031 368C274.359 368 273.763 367.876 273.243 367.628C272.723 367.372 272.315 367.016 272.019 366.56C271.731 366.096 271.587 365.556 271.587 364.94C271.587 364.332 271.711 363.788 271.959 363.308C272.207 362.82 272.551 362.436 272.991 362.156C273.431 361.876 273.943 361.736 274.527 361.736C275.159 361.736 275.683 361.872 276.099 362.144C276.523 362.416 276.839 362.784 277.047 363.248C277.255 363.704 277.359 364.216 277.359 364.784C277.359 364.872 277.355 364.964 277.347 365.06C277.347 365.156 277.339 365.24 277.323 365.312H272.763C272.803 365.688 272.927 366.008 273.135 366.272C273.343 366.528 273.607 366.724 273.927 366.86C274.255 366.988 274.615 367.052 275.007 367.052H276.603V368H275.031ZM272.751 364.532H276.243C276.243 364.38 276.227 364.22 276.195 364.052C276.163 363.876 276.107 363.708 276.027 363.548C275.947 363.38 275.839 363.232 275.703 363.104C275.575 362.968 275.411 362.86 275.211 362.78C275.019 362.7 274.791 362.66 274.527 362.66C274.247 362.66 273.999 362.716 273.783 362.828C273.575 362.932 273.395 363.076 273.243 363.26C273.091 363.436 272.975 363.636 272.895 363.86C272.815 364.084 272.767 364.308 272.751 364.532Z" fill="#553F2E"/>
<path d="M263.603 368V359.6H268.163C268.587 359.6 268.959 359.696 269.279 359.888C269.599 360.072 269.851 360.324 270.035 360.644C270.219 360.964 270.311 361.328 270.311 361.736C270.311 362.016 270.251 362.288 270.131 362.552C270.019 362.808 269.859 363.032 269.651 363.224C269.443 363.416 269.195 363.56 268.907 363.656C269.235 363.736 269.519 363.88 269.759 364.088C269.999 364.296 270.187 364.544 270.323 364.832C270.467 365.12 270.539 365.432 270.539 365.768C270.539 366.184 270.443 366.56 270.251 366.896C270.059 367.232 269.791 367.5 269.447 367.7C269.111 367.9 268.707 368 268.235 368H263.603ZM264.755 366.98H267.971C268.267 366.98 268.519 366.916 268.727 366.788C268.935 366.652 269.095 366.48 269.207 366.272C269.327 366.056 269.387 365.828 269.387 365.588C269.387 365.34 269.327 365.116 269.207 364.916C269.087 364.708 268.919 364.54 268.703 364.412C268.487 364.276 268.231 364.208 267.935 364.208H264.755V366.98ZM264.755 363.236H267.767C268.047 363.236 268.291 363.176 268.499 363.056C268.715 362.928 268.879 362.764 268.991 362.564C269.111 362.356 269.171 362.14 269.171 361.916C269.171 361.684 269.115 361.472 269.003 361.28C268.891 361.08 268.735 360.92 268.535 360.8C268.335 360.68 268.103 360.62 267.839 360.62H264.755V363.236Z" fill="#553F2E"/>
<path d="M256.029 368V362.828H254.961V361.88H256.029V360.98C256.029 360.436 256.181 360.012 256.485 359.708C256.797 359.396 257.225 359.24 257.769 359.24H259.281V360.188H257.985C257.713 360.188 257.505 360.264 257.361 360.416C257.217 360.568 257.145 360.78 257.145 361.052V361.88H259.041V362.828H257.145V368H256.029Z" fill="#553F2E"/>
<path d="M251.037 368.144C250.413 368.144 249.861 368.004 249.381 367.724C248.901 367.436 248.521 367.052 248.241 366.572C247.961 366.084 247.821 365.54 247.821 364.94C247.821 364.34 247.961 363.8 248.241 363.32C248.521 362.832 248.901 362.448 249.381 362.168C249.861 361.88 250.413 361.736 251.037 361.736C251.661 361.736 252.213 361.88 252.693 362.168C253.181 362.448 253.561 362.828 253.833 363.308C254.113 363.788 254.253 364.332 254.253 364.94C254.253 365.54 254.113 366.084 253.833 366.572C253.561 367.052 253.181 367.436 252.693 367.724C252.213 368.004 251.661 368.144 251.037 368.144ZM251.037 367.196C251.461 367.196 251.829 367.096 252.141 366.896C252.453 366.696 252.697 366.428 252.873 366.092C253.049 365.748 253.137 365.364 253.137 364.94C253.137 364.516 253.049 364.136 252.873 363.8C252.697 363.456 252.453 363.184 252.141 362.984C251.829 362.784 251.461 362.684 251.037 362.684C250.621 362.684 250.253 362.784 249.933 362.984C249.621 363.184 249.377 363.456 249.201 363.8C249.025 364.136 248.937 364.516 248.937 364.94C248.937 365.364 249.025 365.748 249.201 366.092C249.377 366.428 249.621 366.696 249.933 366.896C250.253 367.096 250.621 367.196 251.037 367.196Z" fill="#553F2E"/>
<path d="M239.821 370.436V368.096C239.373 368.032 238.973 367.884 238.621 367.652C238.277 367.412 238.005 367.104 237.805 366.728C237.605 366.344 237.505 365.908 237.505 365.42V361.88H238.621V365.408C238.621 365.776 238.701 366.096 238.861 366.368C239.021 366.632 239.233 366.836 239.497 366.98C239.769 367.124 240.057 367.196 240.361 367.196C240.673 367.196 240.961 367.124 241.225 366.98C241.497 366.836 241.713 366.632 241.873 366.368C242.041 366.096 242.125 365.776 242.125 365.408V361.88H243.229V365.42C243.229 365.908 243.129 366.34 242.929 366.716C242.737 367.092 242.465 367.4 242.113 367.64C241.769 367.872 241.373 368.024 240.925 368.096V370.436H239.821Z" fill="#553F2E"/>
<path d="M234.706 368C234.162 368 233.734 367.844 233.422 367.532C233.118 367.22 232.966 366.796 232.966 366.26V360.344H234.07V366.188C234.07 366.452 234.142 366.664 234.286 366.824C234.438 366.976 234.646 367.052 234.91 367.052H236.146V368H234.706ZM231.91 362.828V361.88H236.17V362.828H231.91Z" fill="#553F2E"/>
<path d="M229.759 368V361.88H230.875V368H229.759ZM230.323 360.908C230.123 360.908 229.947 360.836 229.795 360.692C229.651 360.54 229.579 360.364 229.579 360.164C229.579 359.964 229.651 359.792 229.795 359.648C229.947 359.496 230.123 359.42 230.323 359.42C230.523 359.42 230.695 359.496 230.839 359.648C230.991 359.792 231.067 359.964 231.067 360.164C231.067 360.364 230.991 360.54 230.839 360.692C230.695 360.836 230.523 360.908 230.323 360.908Z" fill="#553F2E"/>
<path d="M227.375 368C226.735 368 226.151 367.892 225.623 367.676C225.095 367.452 224.639 367.148 224.255 366.764C223.879 366.38 223.587 365.936 223.379 365.432C223.179 364.92 223.079 364.376 223.079 363.8C223.079 363.224 223.179 362.684 223.379 362.18C223.587 361.668 223.879 361.22 224.255 360.836C224.639 360.452 225.095 360.152 225.623 359.936C226.151 359.712 226.735 359.6 227.375 359.6H228.455V360.62H227.411C226.955 360.62 226.535 360.7 226.151 360.86C225.767 361.02 225.431 361.244 225.143 361.532C224.863 361.82 224.643 362.156 224.483 362.54C224.323 362.924 224.243 363.344 224.243 363.8C224.243 364.248 224.323 364.668 224.483 365.06C224.643 365.444 224.863 365.78 225.143 366.068C225.431 366.356 225.767 366.58 226.151 366.74C226.535 366.9 226.955 366.98 227.411 366.98H228.455V368H227.375Z" fill="#553F2E"/>
<path d="M217.503 369.8L218.043 368.072C217.867 368.016 217.731 367.916 217.635 367.772C217.547 367.62 217.503 367.468 217.503 367.316C217.503 367.092 217.579 366.908 217.731 366.764C217.891 366.612 218.079 366.536 218.295 366.536C218.535 366.536 218.727 366.616 218.871 366.776C219.015 366.936 219.087 367.128 219.087 367.352C219.087 367.504 219.075 367.648 219.051 367.784C219.027 367.912 218.983 368.06 218.919 368.228L218.439 369.8H217.503Z" fill="#553F2E"/>
<path d="M214.187 368C213.515 368 212.919 367.876 212.399 367.628C211.879 367.372 211.471 367.016 211.175 366.56C210.887 366.096 210.743 365.556 210.743 364.94C210.743 364.332 210.867 363.788 211.115 363.308C211.363 362.82 211.707 362.436 212.147 362.156C212.587 361.876 213.099 361.736 213.683 361.736C214.315 361.736 214.839 361.872 215.255 362.144C215.679 362.416 215.995 362.784 216.203 363.248C216.411 363.704 216.515 364.216 216.515 364.784C216.515 364.872 216.511 364.964 216.503 365.06C216.503 365.156 216.495 365.24 216.479 365.312H211.919C211.959 365.688 212.083 366.008 212.291 366.272C212.499 366.528 212.763 366.724 213.083 366.86C213.411 366.988 213.771 367.052 214.163 367.052H215.759V368H214.187ZM211.907 364.532H215.399C215.399 364.38 215.383 364.22 215.351 364.052C215.319 363.876 215.263 363.708 215.183 363.548C215.103 363.38 214.995 363.232 214.859 363.104C214.731 362.968 214.567 362.86 214.367 362.78C214.175 362.7 213.947 362.66 213.683 362.66C213.403 362.66 213.155 362.716 212.939 362.828C212.731 362.932 212.551 363.076 212.399 363.26C212.247 363.436 212.131 363.636 212.051 363.86C211.971 364.084 211.923 364.308 211.907 364.532Z" fill="#553F2E"/>
<path d="M206.459 368.144C205.907 368.144 205.411 368.032 204.971 367.808C204.539 367.576 204.199 367.256 203.951 366.848C203.711 366.44 203.591 365.964 203.591 365.42V361.88H204.707V365.408C204.707 365.776 204.787 366.096 204.947 366.368C205.107 366.632 205.319 366.836 205.583 366.98C205.855 367.124 206.143 367.196 206.447 367.196C206.759 367.196 207.047 367.124 207.311 366.98C207.583 366.836 207.799 366.632 207.959 366.368C208.127 366.096 208.211 365.776 208.211 365.408V361.88H209.327V365.42C209.327 365.964 209.203 366.44 208.955 366.848C208.707 367.256 208.367 367.576 207.935 367.808C207.503 368.032 207.011 368.144 206.459 368.144Z" fill="#553F2E"/>
<path d="M196.126 368V364.46C196.126 363.916 196.246 363.44 196.486 363.032C196.734 362.624 197.074 362.308 197.506 362.084C197.938 361.852 198.43 361.736 198.982 361.736C199.542 361.736 200.034 361.852 200.458 362.084C200.89 362.308 201.226 362.624 201.466 363.032C201.714 363.44 201.838 363.916 201.838 364.46V368H200.734V364.472C200.734 364.104 200.65 363.788 200.482 363.524C200.322 363.252 200.106 363.044 199.834 362.9C199.57 362.756 199.286 362.684 198.982 362.684C198.678 362.684 198.39 362.756 198.118 362.9C197.854 363.044 197.638 363.252 197.47 363.524C197.31 363.788 197.23 364.104 197.23 364.472V368H196.126Z" fill="#553F2E"/>
<path d="M192.39 368C191.718 368 191.122 367.876 190.602 367.628C190.082 367.372 189.674 367.016 189.378 366.56C189.09 366.096 188.946 365.556 188.946 364.94C188.946 364.332 189.07 363.788 189.318 363.308C189.566 362.82 189.91 362.436 190.35 362.156C190.79 361.876 191.302 361.736 191.886 361.736C192.518 361.736 193.042 361.872 193.458 362.144C193.882 362.416 194.198 362.784 194.406 363.248C194.614 363.704 194.718 364.216 194.718 364.784C194.718 364.872 194.714 364.964 194.706 365.06C194.706 365.156 194.698 365.24 194.682 365.312H190.122C190.162 365.688 190.286 366.008 190.494 366.272C190.702 366.528 190.966 366.724 191.286 366.86C191.614 366.988 191.974 367.052 192.366 367.052H193.962V368H192.39ZM190.11 364.532H193.602C193.602 364.38 193.586 364.22 193.554 364.052C193.522 363.876 193.466 363.708 193.386 363.548C193.306 363.38 193.198 363.232 193.062 363.104C192.934 362.968 192.77 362.86 192.57 362.78C192.378 362.7 192.15 362.66 191.886 362.66C191.606 362.66 191.358 362.716 191.142 362.828C190.934 362.932 190.754 363.076 190.602 363.26C190.45 363.436 190.334 363.636 190.254 363.86C190.174 364.084 190.126 364.308 190.11 364.532Z" fill="#553F2E"/>
<path d="M185.171 368.144C184.899 368.144 184.651 368.068 184.427 367.916C184.211 367.756 184.051 367.532 183.947 367.244L181.955 361.88H183.167L184.943 366.836C184.975 366.916 185.011 366.972 185.051 367.004C185.091 367.036 185.135 367.052 185.183 367.052C185.239 367.052 185.283 367.036 185.315 367.004C185.355 366.972 185.391 366.916 185.423 366.836L187.211 361.88H188.399L186.407 367.244C186.295 367.532 186.131 367.756 185.915 367.916C185.699 368.068 185.451 368.144 185.171 368.144Z" fill="#553F2E"/>
<path d="M173.348 368L176.204 360.404C176.332 360.076 176.508 359.836 176.732 359.684C176.956 359.532 177.216 359.456 177.512 359.456C177.808 359.456 178.068 359.532 178.292 359.684C178.524 359.828 178.7 360.064 178.82 360.392L181.688 368H180.428L179.696 365.972H175.304L174.56 368H173.348ZM175.664 364.952H179.348L177.848 360.788C177.808 360.684 177.764 360.604 177.716 360.548C177.668 360.492 177.6 360.464 177.512 360.464C177.432 360.464 177.368 360.492 177.32 360.548C177.272 360.604 177.232 360.684 177.2 360.788L175.664 364.952Z" fill="#553F2E"/>
<path d="M166.544 368.144C166.08 368.144 165.656 368.072 165.272 367.928C164.888 367.776 164.556 367.556 164.276 367.268C163.996 366.98 163.776 366.636 163.616 366.236C163.464 365.828 163.388 365.372 163.388 364.868C163.388 364.228 163.516 363.676 163.772 363.212C164.036 362.74 164.392 362.376 164.84 362.12C165.296 361.864 165.804 361.736 166.364 361.736C166.676 361.736 166.972 361.788 167.252 361.892C167.54 361.996 167.796 362.14 168.02 362.324C168.244 362.508 168.42 362.724 168.548 362.972H168.572V359.24H169.676V364.904C169.676 365.584 169.536 366.168 169.256 366.656C168.984 367.136 168.612 367.504 168.14 367.76C167.676 368.016 167.144 368.144 166.544 368.144ZM166.544 367.196C166.92 367.196 167.26 367.104 167.564 366.92C167.868 366.736 168.108 366.476 168.284 366.14C168.468 365.804 168.56 365.408 168.56 364.952C168.56 364.488 168.468 364.088 168.284 363.752C168.108 363.408 167.868 363.144 167.564 362.96C167.26 362.776 166.916 362.684 166.532 362.684C166.156 362.684 165.812 362.78 165.5 362.972C165.196 363.164 164.952 363.428 164.768 363.764C164.592 364.1 164.504 364.492 164.504 364.94C164.504 365.404 164.596 365.804 164.78 366.14C164.964 366.476 165.208 366.736 165.512 366.92C165.824 367.104 166.168 367.196 166.544 367.196Z" fill="#553F2E"/>
<path d="M160.864 368V361.88H161.98V368H160.864ZM161.428 360.908C161.228 360.908 161.052 360.836 160.9 360.692C160.756 360.54 160.684 360.364 160.684 360.164C160.684 359.964 160.756 359.792 160.9 359.648C161.052 359.496 161.228 359.42 161.428 359.42C161.628 359.42 161.8 359.496 161.944 359.648C162.096 359.792 162.172 359.964 162.172 360.164C162.172 360.364 162.096 360.54 161.944 360.692C161.8 360.836 161.628 360.908 161.428 360.908Z" fill="#553F2E"/>
<path d="M156.844 368V363.62C156.844 363.076 156.996 362.652 157.3 362.348C157.612 362.036 158.04 361.88 158.584 361.88H159.844V362.828H158.788C158.524 362.828 158.316 362.904 158.164 363.056C158.02 363.208 157.948 363.42 157.948 363.692V368H156.844Z" fill="#553F2E"/>
<path d="M152.312 368.144C151.72 368.144 151.188 368.016 150.716 367.76C150.244 367.504 149.868 367.136 149.588 366.656C149.316 366.168 149.18 365.584 149.18 364.904V359.24H150.284V362.972H150.308C150.444 362.724 150.62 362.508 150.836 362.324C151.06 362.14 151.312 361.996 151.592 361.892C151.88 361.788 152.18 361.736 152.492 361.736C153.06 361.736 153.568 361.864 154.016 362.12C154.464 362.376 154.816 362.74 155.072 363.212C155.336 363.676 155.468 364.228 155.468 364.868C155.468 365.372 155.388 365.828 155.228 366.236C155.076 366.636 154.86 366.98 154.58 367.268C154.3 367.556 153.968 367.776 153.584 367.928C153.2 368.072 152.776 368.144 152.312 368.144ZM152.312 367.196C152.688 367.196 153.028 367.104 153.332 366.92C153.644 366.736 153.892 366.476 154.076 366.14C154.26 365.804 154.352 365.404 154.352 364.94C154.352 364.492 154.26 364.1 154.076 363.764C153.9 363.428 153.66 363.164 153.356 362.972C153.052 362.78 152.708 362.684 152.324 362.684C151.948 362.684 151.604 362.776 151.292 362.96C150.988 363.144 150.744 363.408 150.56 363.752C150.384 364.088 150.296 364.488 150.296 364.952C150.296 365.408 150.384 365.804 150.56 366.14C150.744 366.476 150.988 366.736 151.292 366.92C151.604 367.104 151.944 367.196 152.312 367.196Z" fill="#553F2E"/>
<path d="M142.464 370.436V369.488H145.464C145.76 369.488 145.988 369.4 146.148 369.224C146.316 369.048 146.4 368.816 146.4 368.528V366.848H146.376C146.224 367.08 146.04 367.288 145.824 367.472C145.608 367.656 145.36 367.804 145.08 367.916C144.8 368.02 144.484 368.072 144.132 368.072C143.556 368.072 143.048 367.94 142.608 367.676C142.168 367.404 141.824 367.032 141.576 366.56C141.328 366.08 141.204 365.532 141.204 364.916C141.204 364.316 141.328 363.776 141.576 363.296C141.824 362.816 142.18 362.436 142.644 362.156C143.116 361.876 143.684 361.736 144.348 361.736C144.988 361.736 145.544 361.872 146.016 362.144C146.488 362.416 146.852 362.796 147.108 363.284C147.372 363.764 147.504 364.328 147.504 364.976V368.6C147.504 369.16 147.34 369.604 147.012 369.932C146.684 370.268 146.236 370.436 145.668 370.436H142.464ZM144.336 367.124C144.744 367.124 145.1 367.028 145.404 366.836C145.716 366.644 145.956 366.384 146.124 366.056C146.3 365.72 146.388 365.344 146.388 364.928C146.388 364.504 146.304 364.124 146.136 363.788C145.968 363.452 145.732 363.188 145.428 362.996C145.124 362.796 144.76 362.696 144.336 362.696C143.92 362.696 143.56 362.796 143.256 362.996C142.96 363.188 142.728 363.456 142.56 363.8C142.4 364.136 142.32 364.516 142.32 364.94C142.32 365.34 142.4 365.708 142.56 366.044C142.728 366.372 142.96 366.636 143.256 366.836C143.56 367.028 143.92 367.124 144.336 367.124Z" fill="#553F2E"/>
<path d="M134.075 368V364.46C134.075 363.916 134.195 363.44 134.435 363.032C134.683 362.624 135.023 362.308 135.455 362.084C135.887 361.852 136.379 361.736 136.931 361.736C137.491 361.736 137.983 361.852 138.407 362.084C138.839 362.308 139.175 362.624 139.415 363.032C139.663 363.44 139.787 363.916 139.787 364.46V368H138.683V364.472C138.683 364.104 138.599 363.788 138.431 363.524C138.271 363.252 138.055 363.044 137.783 362.9C137.519 362.756 137.235 362.684 136.931 362.684C136.627 362.684 136.339 362.756 136.067 362.9C135.803 363.044 135.587 363.252 135.419 363.524C135.259 363.788 135.179 364.104 135.179 364.472V368H134.075Z" fill="#553F2E"/>
<path d="M131.216 368V361.88H132.332V368H131.216ZM131.78 360.908C131.58 360.908 131.404 360.836 131.252 360.692C131.108 360.54 131.036 360.364 131.036 360.164C131.036 359.964 131.108 359.792 131.252 359.648C131.404 359.496 131.58 359.42 131.78 359.42C131.98 359.42 132.152 359.496 132.296 359.648C132.448 359.792 132.524 359.964 132.524 360.164C132.524 360.364 132.448 360.54 132.296 360.692C132.152 360.836 131.98 360.908 131.78 360.908Z" fill="#553F2E"/>
<path d="M119.567 368V364.316C119.567 363.844 119.675 363.412 119.891 363.02C120.107 362.628 120.419 362.316 120.827 362.084C121.235 361.852 121.727 361.736 122.303 361.736C122.583 361.736 122.863 361.776 123.143 361.856C123.423 361.928 123.683 362.056 123.923 362.24C124.163 362.416 124.355 362.656 124.499 362.96H124.511C124.671 362.656 124.871 362.416 125.111 362.24C125.351 362.056 125.611 361.928 125.891 361.856C126.171 361.776 126.455 361.736 126.743 361.736C127.311 361.736 127.799 361.852 128.207 362.084C128.615 362.316 128.927 362.628 129.143 363.02C129.359 363.412 129.467 363.844 129.467 364.316V368H128.363V364.316C128.363 364.012 128.291 363.736 128.147 363.488C128.003 363.24 127.807 363.044 127.559 362.9C127.319 362.756 127.043 362.684 126.731 362.684C126.427 362.684 126.147 362.76 125.891 362.912C125.635 363.056 125.431 363.252 125.279 363.5C125.135 363.74 125.063 364.012 125.063 364.316V368H123.959V364.316C123.959 364.012 123.883 363.74 123.731 363.5C123.587 363.252 123.387 363.056 123.131 362.912C122.883 362.76 122.603 362.684 122.291 362.684C121.987 362.684 121.711 362.756 121.463 362.9C121.223 363.044 121.031 363.24 120.887 363.488C120.743 363.736 120.671 364.012 120.671 364.316V368H119.567Z" fill="#553F2E"/>
<path d="M107.919 368V364.316C107.919 363.844 108.027 363.412 108.243 363.02C108.459 362.628 108.771 362.316 109.179 362.084C109.587 361.852 110.079 361.736 110.655 361.736C110.935 361.736 111.215 361.776 111.495 361.856C111.775 361.928 112.035 362.056 112.275 362.24C112.515 362.416 112.707 362.656 112.851 362.96H112.863C113.023 362.656 113.223 362.416 113.463 362.24C113.703 362.056 113.963 361.928 114.243 361.856C114.523 361.776 114.807 361.736 115.095 361.736C115.663 361.736 116.151 361.852 116.559 362.084C116.967 362.316 117.279 362.628 117.495 363.02C117.711 363.412 117.819 363.844 117.819 364.316V368H116.715V364.316C116.715 364.012 116.643 363.736 116.499 363.488C116.355 363.24 116.159 363.044 115.911 362.9C115.671 362.756 115.395 362.684 115.083 362.684C114.779 362.684 114.499 362.76 114.243 362.912C113.987 363.056 113.783 363.252 113.631 363.5C113.487 363.74 113.415 364.012 113.415 364.316V368H112.311V364.316C112.311 364.012 112.235 363.74 112.083 363.5C111.939 363.252 111.739 363.056 111.483 362.912C111.235 362.76 110.955 362.684 110.643 362.684C110.339 362.684 110.063 362.756 109.815 362.9C109.575 363.044 109.383 363.24 109.239 363.488C109.095 363.736 109.023 364.012 109.023 364.316V368H107.919Z" fill="#553F2E"/>
<path d="M103.299 368.144C102.747 368.144 102.251 368.032 101.811 367.808C101.379 367.576 101.039 367.256 100.791 366.848C100.551 366.44 100.431 365.964 100.431 365.42V361.88H101.547V365.408C101.547 365.776 101.627 366.096 101.787 366.368C101.947 366.632 102.159 366.836 102.423 366.98C102.695 367.124 102.983 367.196 103.287 367.196C103.599 367.196 103.887 367.124 104.151 366.98C104.423 366.836 104.639 366.632 104.799 366.368C104.967 366.096 105.051 365.776 105.051 365.408V361.88H106.167V365.42C106.167 365.964 106.043 366.44 105.795 366.848C105.547 367.256 105.207 367.576 104.775 367.808C104.343 368.032 103.851 368.144 103.299 368.144Z" fill="#553F2E"/>
<path d="M91.912 368V359.6H93.064V363.212H97.492V359.6H98.644V368H97.492V364.232H93.064V368H91.912Z" fill="#553F2E"/>
<path d="M21.9178 76.7367C21.6889 76.1241 21.3242 76.0015 20.6386 76.0015H20V71.5894H23.9733C25.8912 71.5894 26.8044 72.1203 27.261 73.7138L30.6864 85.2733C31.0061 86.3761 31.143 87.4788 31.143 87.4788H31.2344C31.2344 87.4788 31.417 86.3755 31.7823 85.2733L36.0753 71.6717H41.1902L45.5281 85.2733C45.8941 86.3761 46.0311 87.4788 46.0311 87.4788H46.1224C46.1224 87.4788 46.2594 86.3755 46.579 85.2733L49.9587 73.7138C50.4154 72.1209 51.3286 71.5894 53.2465 71.5894H57.2198V76.0015H56.5812C55.8956 76.0015 55.5759 76.1241 55.3019 76.7367L49.7304 92.4219H43.1987L39.2254 80.5356C38.8601 79.4323 38.6774 78.2887 38.6774 78.2887H38.5861C38.5861 78.2887 38.3571 79.4323 37.9925 80.5356L34.0648 92.4219H27.4894L21.9178 76.7367Z" fill="#553F2E"/>
<path d="M61.6445 76.9001C61.6445 76.2868 61.2785 76.0015 60.6399 76.0015H58.8127V71.5894H64.3386C66.4854 71.5894 67.398 72.4477 67.398 74.3672V87.1521C67.398 87.7239 67.764 88.0506 68.4032 88.0506H70.2298V92.4213H64.7039C62.5577 92.4213 61.6445 91.6045 61.6445 89.6435V76.9001Z" fill="#553F2E"/>
<path d="M75.1143 75.7156H72.2375V71.59H75.1143V70.9773C75.1143 64.1561 81.3708 63.2575 84.6135 63.2575C85.8007 63.2575 86.5776 63.3801 86.5776 63.3801V67.7916C86.5776 67.7916 86.0747 67.7099 85.3904 67.7099C83.7459 67.7099 80.9148 68.0775 80.9148 71.1004V71.5905H85.8927V75.7162H80.9141V92.4225H75.1143V75.7156Z" fill="#553F2E"/>
<path d="M92.6946 96.6293C94.2928 96.6293 95.7083 95.771 96.5302 93.9739L97.3065 92.3811L89.5432 76.7373C89.2692 76.1246 88.9496 76.0021 88.3103 76.0021H87.6247V71.59H91.461C93.1055 71.59 93.9268 72.1209 94.5204 73.5504L99.0874 83.967C99.544 85.0289 99.9093 86.7442 99.9093 86.7442H100.001C100.001 86.7442 100.367 85.0294 100.777 83.967L104.75 73.5504C105.298 72.1209 106.258 71.59 107.856 71.59H111.784V76.0021H111.099C110.413 76.0021 110.048 76.1246 109.774 76.7373L101.417 95.5674C99.7723 99.3249 96.4846 101 93.0136 101C89.3599 101 87.123 98.8762 87.123 98.8762L89.3605 95.1998C89.3605 95.1998 90.7767 96.6293 92.6946 96.6293Z" fill="#553F2E"/>
<path d="M57.9661 63.2832L63.6387 68.357L69.312 63.2832C67.8606 61.9827 65.8553 61.1798 63.6387 61.1798C61.4234 61.1798 59.4181 61.9827 57.9661 63.2832Z" fill="#553F2E"/>
<path d="M46.6267 53.1403L52.2941 58.2071C55.197 55.6112 59.2101 54.0044 63.6394 54.0044C68.07 54.0044 72.0818 55.6112 74.9859 58.2071L80.6534 53.1403C76.2945 49.2404 70.2781 46.8272 63.64 46.8272C57.0026 46.8272 50.9849 49.241 46.6267 53.1403Z" fill="#553F2E"/>
<path d="M35.2839 42.9956L40.9468 48.0583C46.7544 42.8637 54.7781 39.6529 63.6393 39.6529C72.5018 39.6529 80.5254 42.8637 86.3317 48.0583L91.9946 42.9956C84.7296 36.4982 74.7001 32.474 63.6386 32.474C52.5791 32.474 42.5489 36.4982 35.2839 42.9956Z" fill="#553F2E"/>
<path d="M63.6387 25.4497C76.042 25.4497 87.3494 29.6454 95.8871 36.5355C96.2622 35.2647 96.4729 33.935 96.4729 32.5592C96.4729 23.966 88.6854 17 79.0779 17C72.3609 17 66.5383 20.4068 63.6387 25.3919C60.7404 20.4068 54.9177 17 48.2007 17C38.5926 17 30.8058 23.966 30.8058 32.5592C30.8058 33.935 31.0165 35.2653 31.3916 36.5355C39.9305 29.6454 51.2373 25.4497 63.6387 25.4497Z" fill="#B3CC1F"/>
<path d="M117.033 76.9C117.033 76.2868 116.668 76.0015 116.028 76.0015H114.201V71.5894H119.544C121.599 71.5894 122.604 72.4476 122.604 73.918V74.5306C122.604 74.9799 122.558 75.4291 122.558 75.4291H122.65C123.746 73.387 126.531 71.0993 130.185 71.0993C133.702 71.0993 135.985 72.5702 136.99 75.3883H137.082C138.314 73.142 141.329 71.0993 145.028 71.0993C149.868 71.0993 152.654 73.5498 152.654 79.0233V87.1521C152.654 87.7239 153.02 88.0506 153.658 88.0506H155.439V92.4213H149.96C147.768 92.4213 146.854 91.6045 146.854 89.6435V80.0041C146.854 77.6346 146.351 75.8376 143.658 75.8376C140.781 75.8376 138.725 78.0022 138.086 80.6161C137.812 81.433 137.72 82.2912 137.72 83.2715V92.4213H131.92V80.0041C131.92 77.7572 131.555 75.8376 128.77 75.8376C125.847 75.8376 123.883 78.0022 123.152 80.6575C122.924 81.4744 122.787 82.3321 122.787 83.2715V92.4213H117.033V76.9Z" fill="#B3CC1F"/>
<path d="M168.68 71.0998C175.347 71.0998 179 75.4706 179 80.9849C179 81.5975 178.863 82.9045 178.863 82.9045H162.788C163.244 86.5809 166.259 88.5005 169.775 88.5005C173.52 88.5005 176.306 86.1724 176.306 86.1724L178.726 89.7666C178.726 89.7666 175.164 92.912 169.364 92.912C161.646 92.912 156.851 87.9287 156.851 82.0065C156.852 75.5931 161.693 71.0998 168.68 71.0998ZM173.064 79.3098C172.973 76.8178 171.055 75.1024 168.68 75.1024C165.711 75.1024 163.61 76.6953 162.971 79.3098H173.064Z" fill="#B3CC1F"/>
<rect x="20" y="101" width="159" height="5" fill="#B3CC1F"/>
</g>
<defs>
<clipPath id="clip0_4_310">
<rect width="912" height="396" fill="white"/>
</clipPath>
<clipPath id="clip1_4_310">
<rect width="26" height="19" fill="white" transform="translate(724 354)"/>
</clipPath>
<clipPath id="clip2_4_310">
<rect width="27" height="20" fill="white" transform="translate(47 353)"/>
</clipPath>
</defs>
</svg>
